<?xml version="1.0" standalone="no"?><!DOCTYPE svg PUBLIC "-//W3C//DTD SVG 1.1//EN" "http://www.w3.org/Graphics/SVG/1.1/DTD/svg11.dtd" ><svg xmlns="http://www.w3.org/2000/svg"><metadata></metadata><defs><font id="1.001;UKWN;DinkieBitmap-9px" horiz-adv-x="1000"><font-face font-family="DinkieBitmap 9px" font-weight="400" font-stretch="normal" units-per-em="1000" panose-1="0 0 5 0 0 0 0 0 0 0" ascent="1200" descent="-400" x-height="0" bbox="-100 -200 900 800" underline-thickness="100" underline-position="-250" unicode-range="U+0020-ff1f" /><missing-glyph horiz-adv-x="1000" d="M900 800 l0 -900 l-900 0 l0 900 l900 0 ZM800 700 l-700 0 l0 -700 l700 0 l0 700 ZM200 500 l0 100 l100 0 l0 -100 l-100 0 ZM700 500 l-100 0 l0 100 l100 0 l0 -100 ZM300 500 l100 0 l0 -100 l-100 0 l0 100 ZM600 400 l-100 0 l0 100 l100 0 l0 -100 ZM200 400 l100 0 l0 -100 l-100 0 l0 100 ZM700 400 l0 -100 l-100 0 l0 100 l100 0 ZM300 200 l300 0 l0 -100 l-300 0 l0 100 Z" /><glyph glyph-name="nonbreakingspace" unicode="  " d="" /><glyph glyph-name="A" unicode="a" d="M200 700 l100 0 l0 -100 l-100 0 l0 100 ZM200 600 l0 -200 l-100 0 l0 200 l100 0 ZM400 400 l-100 0 l0 200 l100 0 l0 -200 ZM400 300 l0 100 l100 0 l0 -400 l-100 0 l0 200 l-300 0 l0 -200 l-100 0 l0 400 l100 0 l0 -100 l300 0 Z" /><glyph glyph-name="B" unicode="b" d="M100 400 l200 0 l0 -100 l-200 0 l0 -200 l200 0 l0 -100 l-300 0 l0 700 l300 0 l0 -100 l-200 0 l0 -200 ZM300 600 l100 0 l0 -200 l-100 0 l0 200 ZM400 100 l-100 0 l0 200 l100 0 l0 -200 Z" /><glyph glyph-name="C" unicode="c" d="M200 700 l200 0 l0 -100 l-200 0 l0 100 ZM200 500 l-100 0 l0 100 l100 0 l0 -100 ZM500 600 l0 -100 l-100 0 l0 100 l100 0 ZM0 500 l100 0 l0 -400 l-100 0 l0 400 ZM400 200 l100 0 l0 -100 l-100 0 l0 100 ZM100 0 l0 100 l300 0 l0 -100 l-300 0 Z" /><glyph glyph-name="D" unicode="d" d="M100 100 l200 0 l0 -100 l-300 0 l0 700 l400 0 l0 -100 l-300 0 l0 -500 ZM400 600 l100 0 l0 -400 l-100 0 l0 400 ZM400 100 l-100 0 l0 100 l100 0 l0 -100 Z" /><glyph glyph-name="E" unicode="e" d="M100 600 l0 -200 l200 0 l0 -100 l-200 0 l0 -200 l300 0 l0 -100 l-400 0 l0 700 l400 0 l0 -100 l-300 0 Z" /><glyph glyph-name="F" unicode="f" d="M400 700 l0 -100 l-300 0 l0 -200 l200 0 l0 -100 l-200 0 l0 -300 l-100 0 l0 700 l400 0 Z" /><glyph glyph-name="G" unicode="g" d="M200 700 l200 0 l0 -100 l-200 0 l0 100 ZM200 500 l-100 0 l0 100 l100 0 l0 -100 ZM500 600 l0 -100 l-100 0 l0 100 l100 0 ZM0 500 l100 0 l0 -400 l-100 0 l0 400 ZM100 0 l0 100 l300 0 l0 200 l-100 0 l0 100 l200 0 l0 -400 l-400 0 Z" /><glyph glyph-name="H" unicode="h" d="M400 700 l100 0 l0 -700 l-100 0 l0 300 l-300 0 l0 -300 l-100 0 l0 700 l100 0 l0 -300 l300 0 l0 300 Z" /><glyph glyph-name="I" unicode="i" d="M200 100 l100 0 l0 -100 l-300 0 l0 100 l100 0 l0 500 l-100 0 l0 100 l300 0 l0 -100 l-100 0 l0 -500 Z" /><glyph glyph-name="J" unicode="j" d="M300 700 l100 0 l0 -600 l-100 0 l0 600 ZM0 100 l0 100 l100 0 l0 -100 l-100 0 ZM100 0 l0 100 l200 0 l0 -100 l-200 0 Z" /><glyph glyph-name="K" unicode="k" d="M100 400 l100 0 l0 -100 l-100 0 l0 -300 l-100 0 l0 700 l100 0 l0 -300 ZM300 700 l100 0 l0 -200 l-100 0 l0 200 ZM300 400 l-100 0 l0 100 l100 0 l0 -100 ZM300 300 l0 -100 l-100 0 l0 100 l100 0 ZM400 0 l-100 0 l0 200 l100 0 l0 -200 Z" /><glyph glyph-name="L" unicode="l" d="M400 100 l0 -100 l-400 0 l0 700 l100 0 l0 -600 l300 0 Z" /><glyph glyph-name="M" unicode="m" d="M100 700 l0 -100 l100 0 l0 -100 l-100 0 l0 -500 l-100 0 l0 700 l100 0 ZM600 600 l0 100 l100 0 l0 -700 l-100 0 l0 500 l-100 0 l0 100 l100 0 ZM200 500 l100 0 l0 -200 l-100 0 l0 200 ZM400 300 l0 200 l100 0 l0 -200 l-100 0 ZM300 100 l0 200 l100 0 l0 -200 l-100 0 Z" /><glyph glyph-name="N" unicode="n" d="M100 700 l0 -100 l100 0 l0 -100 l-100 0 l0 -500 l-100 0 l0 700 l100 0 ZM400 700 l100 0 l0 -700 l-100 0 l0 300 l-100 0 l0 100 l100 0 l0 300 ZM200 400 l0 100 l100 0 l0 -100 l-100 0 Z" /><glyph glyph-name="O" unicode="o" d="M400 700 l0 -100 l-200 0 l0 100 l200 0 ZM100 600 l100 0 l0 -100 l-100 0 l0 100 ZM400 600 l100 0 l0 -500 l-100 0 l0 500 ZM100 100 l-100 0 l0 400 l100 0 l0 -400 ZM100 100 l300 0 l0 -100 l-300 0 l0 100 Z" /><glyph glyph-name="P" unicode="p" d="M100 400 l200 0 l0 -100 l-200 0 l0 -300 l-100 0 l0 700 l300 0 l0 -100 l-200 0 l0 -200 ZM300 600 l100 0 l0 -200 l-100 0 l0 200 Z" /><glyph glyph-name="R" unicode="r" d="M100 400 l200 0 l0 -200 l-100 0 l0 100 l-100 0 l0 -300 l-100 0 l0 700 l300 0 l0 -100 l-200 0 l0 -200 ZM300 600 l100 0 l0 -200 l-100 0 l0 200 ZM400 0 l-100 0 l0 200 l100 0 l0 -200 Z" /><glyph glyph-name="S" unicode="s" d="M400 600 l-300 0 l0 100 l300 0 l0 -100 ZM0 500 l0 100 l100 0 l0 -100 l-100 0 ZM200 500 l0 -100 l-100 0 l0 100 l100 0 ZM300 400 l0 -100 l-100 0 l0 100 l100 0 ZM400 100 l-100 0 l0 200 l100 0 l0 -200 ZM0 100 l0 100 l100 0 l0 -100 l-100 0 ZM100 0 l0 100 l200 0 l0 -100 l-200 0 Z" /><glyph glyph-name="T" unicode="t" d="M500 700 l0 -100 l-200 0 l0 -600 l-100 0 l0 600 l-200 0 l0 100 l500 0 Z" /><glyph glyph-name="U" unicode="u" d="M100 100 l-100 0 l0 600 l100 0 l0 -600 ZM400 700 l100 0 l0 -600 l-100 0 l0 600 ZM100 100 l300 0 l0 -100 l-300 0 l0 100 Z" /><glyph glyph-name="W" unicode="w" d="M100 700 l0 -300 l-100 0 l0 300 l100 0 ZM800 700 l100 0 l0 -300 l-100 0 l0 300 ZM400 600 l100 0 l0 -200 l-100 0 l0 200 ZM100 400 l100 0 l0 -200 l-100 0 l0 200 ZM300 200 l0 200 l100 0 l0 -200 l-100 0 ZM500 400 l100 0 l0 -200 l-100 0 l0 200 ZM700 200 l0 200 l100 0 l0 -200 l-100 0 ZM200 0 l0 200 l100 0 l0 -200 l-100 0 ZM600 0 l0 200 l100 0 l0 -200 l-100 0 Z" /><glyph glyph-name="X" unicode="x" d="M0 700 l100 0 l0 -200 l-100 0 l0 200 ZM400 700 l100 0 l0 -200 l-100 0 l0 200 ZM100 400 l0 100 l100 0 l0 -100 l-100 0 ZM400 400 l-100 0 l0 100 l100 0 l0 -100 ZM300 300 l-100 0 l0 100 l100 0 l0 -100 ZM200 200 l-100 0 l0 100 l100 0 l0 -100 ZM400 300 l0 -100 l-100 0 l0 100 l100 0 ZM0 0 l0 200 l100 0 l0 -200 l-100 0 ZM500 0 l-100 0 l0 200 l100 0 l0 -200 Z" /><glyph glyph-name="Y" unicode="y" d="M0 700 l100 0 l0 -200 l-100 0 l0 200 ZM400 700 l100 0 l0 -200 l-100 0 l0 200 ZM100 400 l0 100 l100 0 l0 -100 l-100 0 ZM400 400 l-100 0 l0 100 l100 0 l0 -100 ZM200 400 l100 0 l0 -400 l-100 0 l0 400 Z" /><glyph glyph-name="Z" unicode="z" d="M300 600 l0 -200 l-100 0 l0 200 l-200 0 l0 100 l400 0 l0 -100 l-100 0 ZM200 400 l0 -200 l-100 0 l0 200 l100 0 ZM0 200 l100 0 l0 -100 l300 0 l0 -100 l-400 0 l0 200 Z" /><glyph glyph-name="a" unicode="a" d="M100 500 l200 0 l0 -100 l-200 0 l0 100 ZM300 300 l0 100 l100 0 l0 -400 l-300 0 l0 100 l200 0 l0 100 l-200 0 l0 100 l200 0 ZM0 100 l0 100 l100 0 l0 -100 l-100 0 Z" /><glyph glyph-name="b" unicode="b" d="M100 100 l200 0 l0 -100 l-300 0 l0 800 l100 0 l0 -300 l200 0 l0 -100 l-200 0 l0 -300 ZM300 400 l100 0 l0 -300 l-100 0 l0 300 Z" /><glyph glyph-name="c" unicode="c" d="M100 500 l200 0 l0 -100 l-200 0 l0 100 ZM0 400 l100 0 l0 -300 l-100 0 l0 300 ZM400 400 l0 -100 l-100 0 l0 100 l100 0 ZM300 200 l100 0 l0 -100 l-100 0 l0 100 ZM300 0 l-200 0 l0 100 l200 0 l0 -100 Z" /><glyph glyph-name="d" unicode="d" d="M300 800 l100 0 l0 -800 l-300 0 l0 100 l200 0 l0 300 l-200 0 l0 100 l200 0 l0 300 ZM100 400 l0 -300 l-100 0 l0 300 l100 0 Z" /><glyph glyph-name="e" unicode="e" d="M300 500 l0 -100 l-200 0 l0 100 l200 0 ZM300 300 l0 100 l100 0 l0 -200 l-300 0 l0 -100 l-100 0 l0 300 l100 0 l0 -100 l200 0 ZM100 0 l0 100 l300 0 l0 -100 l-300 0 Z" /><glyph glyph-name="f" unicode="f" d="M400 800 l0 -100 l-200 0 l0 100 l200 0 ZM100 700 l100 0 l0 -200 l200 0 l0 -100 l-200 0 l0 -400 l-100 0 l0 400 l-100 0 l0 100 l100 0 l0 200 Z" /><glyph glyph-name="g" unicode="g" d="M400 500 l0 -600 l-100 0 l0 100 l-200 0 l0 100 l200 0 l0 300 l-200 0 l0 100 l300 0 ZM100 400 l0 -300 l-100 0 l0 300 l100 0 ZM0 -100 l300 0 l0 -100 l-300 0 l0 100 Z" /><glyph glyph-name="h" unicode="h" d="M100 500 l200 0 l0 -100 l-200 0 l0 -400 l-100 0 l0 800 l100 0 l0 -300 ZM300 400 l100 0 l0 -400 l-100 0 l0 400 Z" /><glyph glyph-name="i" unicode="i" d="M100 700 l0 -100 l-100 0 l0 100 l100 0 ZM0 500 l100 0 l0 -500 l-100 0 l0 500 Z" /><glyph glyph-name="j" unicode="j" d="M0 600 l0 100 l100 0 l0 -100 l-100 0 ZM0 500 l100 0 l0 -600 l-100 0 l0 600 ZM0 -200 l-100 0 l0 100 l100 0 l0 -100 Z" /><glyph glyph-name="k" unicode="k" d="M100 300 l100 0 l0 -100 l-100 0 l0 -200 l-100 0 l0 800 l100 0 l0 -500 ZM300 500 l100 0 l0 -100 l-100 0 l0 100 ZM200 400 l100 0 l0 -100 l-100 0 l0 100 ZM300 200 l0 -100 l-100 0 l0 100 l100 0 ZM400 100 l0 -100 l-100 0 l0 100 l100 0 Z" /><glyph glyph-name="l" unicode="l" d="M0 800 l100 0 l0 -800 l-100 0 l0 800 Z" /><glyph glyph-name="m" unicode="m" d="M300 500 l0 -100 l-200 0 l0 -400 l-100 0 l0 500 l300 0 ZM400 500 l200 0 l0 -100 l-200 0 l0 100 ZM300 400 l100 0 l0 -400 l-100 0 l0 400 ZM600 400 l100 0 l0 -400 l-100 0 l0 400 Z" /><glyph glyph-name="n" unicode="n" d="M300 500 l0 -100 l-200 0 l0 -400 l-100 0 l0 500 l300 0 ZM300 400 l100 0 l0 -400 l-100 0 l0 400 Z" /><glyph glyph-name="o" unicode="o" d="M300 500 l0 -100 l-200 0 l0 100 l200 0 ZM100 400 l0 -300 l-100 0 l0 300 l100 0 ZM300 400 l100 0 l0 -300 l-100 0 l0 300 ZM100 0 l0 100 l200 0 l0 -100 l-200 0 Z" /><glyph glyph-name="p" unicode="p" d="M100 100 l200 0 l0 -100 l-200 0 l0 -200 l-100 0 l0 700 l300 0 l0 -100 l-200 0 l0 -300 ZM300 400 l100 0 l0 -300 l-100 0 l0 300 Z" /><glyph glyph-name="q" unicode="q" d="M400 500 l0 -700 l-100 0 l0 200 l-200 0 l0 100 l200 0 l0 300 l-200 0 l0 100 l300 0 ZM100 400 l0 -300 l-100 0 l0 300 l100 0 Z" /><glyph glyph-name="r" unicode="r" d="M100 500 l200 0 l0 -100 l-200 0 l0 100 ZM0 400 l100 0 l0 -400 l-100 0 l0 400 Z" /><glyph glyph-name="s" unicode="s" d="M300 500 l0 -100 l-200 0 l0 100 l200 0 ZM0 300 l0 100 l100 0 l0 -100 l-100 0 ZM100 300 l200 0 l0 -100 l-200 0 l0 100 ZM300 100 l0 100 l100 0 l0 -100 l-100 0 ZM0 100 l300 0 l0 -100 l-300 0 l0 100 Z" /><glyph glyph-name="t" unicode="t" d="M200 400 l0 -300 l-100 0 l0 300 l-100 0 l0 100 l100 0 l0 200 l100 0 l0 -200 l200 0 l0 -100 l-200 0 ZM400 0 l-200 0 l0 100 l200 0 l0 -100 Z" /><glyph glyph-name="u" unicode="u" d="M100 100 l-100 0 l0 400 l100 0 l0 -400 ZM300 500 l100 0 l0 -500 l-300 0 l0 100 l200 0 l0 400 Z" /><glyph glyph-name="v" unicode="v" d="M0 500 l100 0 l0 -200 l-100 0 l0 200 ZM400 500 l100 0 l0 -200 l-100 0 l0 200 ZM100 300 l100 0 l0 -200 l-100 0 l0 200 ZM300 100 l0 200 l100 0 l0 -200 l-100 0 ZM300 0 l-100 0 l0 100 l100 0 l0 -100 Z" /><glyph glyph-name="w" unicode="w" d="M100 100 l-100 0 l0 400 l100 0 l0 -400 ZM600 500 l100 0 l0 -400 l-100 0 l0 400 ZM300 400 l100 0 l0 -200 l-100 0 l0 200 ZM300 100 l-100 0 l0 100 l100 0 l0 -100 ZM400 100 l0 100 l100 0 l0 -100 l-100 0 ZM200 0 l-100 0 l0 100 l100 0 l0 -100 ZM600 0 l-100 0 l0 100 l100 0 l0 -100 Z" /><glyph glyph-name="x" unicode="x" d="M0 500 l100 0 l0 -200 l-100 0 l0 200 ZM300 500 l100 0 l0 -200 l-100 0 l0 200 ZM100 200 l0 100 l200 0 l0 -100 l-200 0 ZM0 0 l0 200 l100 0 l0 -200 l-100 0 ZM400 0 l-100 0 l0 200 l100 0 l0 -200 Z" /><glyph glyph-name="y" unicode="y" d="M100 500 l0 -300 l-100 0 l0 300 l100 0 ZM300 500 l100 0 l0 -400 l-100 0 l0 400 ZM100 100 l0 100 l100 0 l0 -100 l-100 0 ZM200 -100 l0 200 l100 0 l0 -200 l-100 0 ZM0 -200 l0 100 l200 0 l0 -100 l-200 0 Z" /><glyph glyph-name="z" unicode="z" d="M400 500 l0 -200 l-100 0 l0 100 l-300 0 l0 100 l400 0 ZM100 200 l0 100 l200 0 l0 -100 l-200 0 ZM0 0 l0 200 l100 0 l0 -100 l300 0 l0 -100 l-400 0 Z" /><glyph glyph-name="uni4E00" unicode="&#x4e00;" d="M900 400 l0 -100 l-900 0 l0 100 l900 0 Z" /><glyph glyph-name="uni4E0B" unicode="&#x4e0b;" d="M900 800 l0 -100 l-500 0 l0 -800 l-100 0 l0 800 l-300 0 l0 100 l900 0 ZM500 500 l200 0 l0 -100 l-200 0 l0 100 ZM800 300 l-100 0 l0 100 l100 0 l0 -100 Z" /><glyph glyph-name="uni4E0D" unicode="&#x4e0d;" d="M900 800 l0 -100 l-300 0 l0 -100 l-100 0 l0 100 l-500 0 l0 100 l900 0 ZM300 500 l100 0 l0 100 l100 0 l0 -700 l-100 0 l0 500 l-100 0 l0 100 ZM300 300 l-100 0 l0 100 l100 0 l0 -100 ZM600 400 l200 0 l0 -100 l-200 0 l0 100 ZM0 200 l0 100 l200 0 l0 -100 l-200 0 ZM900 200 l-100 0 l0 100 l100 0 l0 -100 Z" /><glyph glyph-name="uni4E0E" unicode="&#x4e0e;" d="M900 700 l0 -100 l-700 0 l0 -100 l600 0 l0 -500 l-100 0 l0 400 l-600 0 l0 400 l100 0 l0 -100 l700 0 ZM600 200 l0 -100 l-600 0 l0 100 l600 0 ZM500 -100 l0 100 l200 0 l0 -100 l-200 0 Z" /><glyph glyph-name="uni4E2A" unicode="&#x4e2a;" d="M400 700 l0 100 l100 0 l0 -100 l-100 0 ZM400 600 l-100 0 l0 100 l100 0 l0 -100 ZM500 600 l0 100 l100 0 l0 -100 l-100 0 ZM300 500 l-100 0 l0 100 l100 0 l0 -100 ZM600 500 l0 100 l100 0 l0 -100 l-100 0 ZM0 400 l0 100 l200 0 l0 -100 l-200 0 ZM400 500 l100 0 l0 -600 l-100 0 l0 600 ZM700 500 l200 0 l0 -100 l-200 0 l0 100 Z" /><glyph glyph-name="uni4E2D" unicode="&#x4e2d;" d="M900 600 l0 -400 l-400 0 l0 -300 l-100 0 l0 300 l-400 0 l0 400 l400 0 l0 200 l100 0 l0 -200 l400 0 ZM400 300 l0 200 l-300 0 l0 -200 l300 0 ZM800 300 l0 200 l-300 0 l0 -200 l300 0 Z" /><glyph glyph-name="uni4E39" unicode="&#x4e39;" d="M700 400 l200 0 l0 -100 l-200 0 l0 -400 l-200 0 l0 100 l100 0 l0 300 l-300 0 l0 -300 l-100 0 l0 300 l-200 0 l0 100 l200 0 l0 400 l500 0 l0 -400 ZM500 500 l0 -100 l100 0 l0 300 l-300 0 l0 -100 l100 0 l0 -100 l-100 0 l0 -100 l100 0 l0 100 l100 0 ZM200 -100 l-100 0 l0 100 l100 0 l0 -100 Z" /><glyph glyph-name="uni4E3A" unicode="&#x4e3a;" d="M900 600 l0 -600 l-100 0 l0 500 l-400 0 l0 -300 l-100 0 l0 300 l-200 0 l0 100 l100 0 l0 100 l100 0 l0 -100 l100 0 l0 200 l100 0 l0 -200 l400 0 ZM100 700 l0 100 l100 0 l0 -100 l-100 0 ZM500 300 l0 100 l100 0 l0 -100 l-100 0 ZM700 100 l-100 0 l0 200 l100 0 l0 -200 ZM200 0 l0 200 l100 0 l0 -200 l-100 0 ZM0 -100 l0 100 l200 0 l0 -100 l-200 0 ZM600 -100 l0 100 l200 0 l0 -100 l-200 0 Z" /><glyph glyph-name="uni4E3B" unicode="&#x4e3b;" d="M300 700 l0 100 l100 0 l0 -100 l-100 0 ZM900 0 l0 -100 l-900 0 l0 100 l400 0 l0 200 l-200 0 l0 100 l200 0 l0 200 l-300 0 l0 100 l300 0 l0 100 l100 0 l0 -100 l300 0 l0 -100 l-300 0 l0 -200 l200 0 l0 -100 l-200 0 l0 -200 l400 0 Z" /><glyph glyph-name="uni4E48" unicode="&#x4e48;" d="M400 800 l0 -200 l-100 0 l0 200 l100 0 ZM300 600 l0 -200 l-100 0 l0 200 l100 0 ZM600 600 l0 -200 l-100 0 l0 200 l100 0 ZM100 400 l100 0 l0 -100 l-100 0 l0 100 ZM500 400 l0 -200 l-100 0 l0 200 l100 0 ZM0 300 l100 0 l0 -100 l-100 0 l0 100 ZM300 200 l100 0 l0 -100 l-100 0 l0 100 ZM700 200 l100 0 l0 -200 l-100 0 l0 200 ZM700 0 l0 -100 l-600 0 l0 100 l100 0 l0 100 l100 0 l0 -100 l400 0 ZM800 -100 l0 100 l100 0 l0 -100 l-100 0 Z" /><glyph glyph-name="uni4E49" unicode="&#x4e49;" d="M300 800 l100 0 l0 -100 l-100 0 l0 100 ZM500 500 l-100 0 l0 200 l100 0 l0 -200 ZM800 400 l-100 0 l0 300 l100 0 l0 -300 ZM100 600 l100 0 l0 -200 l-100 0 l0 200 ZM200 300 l0 100 l100 0 l0 -100 l-100 0 ZM600 400 l100 0 l0 -100 l-100 0 l0 100 ZM300 200 l0 100 l100 0 l0 -100 l-100 0 ZM500 300 l100 0 l0 -100 l-100 0 l0 100 ZM400 100 l0 100 l100 0 l0 -100 l-100 0 ZM200 0 l0 100 l200 0 l0 -100 l-200 0 ZM500 100 l200 0 l0 -100 l-200 0 l0 100 ZM0 -100 l0 100 l200 0 l0 -100 l-200 0 ZM700 0 l200 0 l0 -100 l-200 0 l0 100 Z" /><glyph glyph-name="uni4E4B" unicode="&#x4e4b;" d="M300 700 l0 100 l100 0 l0 -100 l-100 0 ZM800 500 l-100 0 l0 -100 l-100 0 l0 100 l-600 0 l0 100 l400 0 l0 100 l100 0 l0 -100 l300 0 l0 -100 ZM500 400 l100 0 l0 -100 l-100 0 l0 100 ZM500 300 l0 -100 l-200 0 l0 100 l200 0 ZM100 200 l200 0 l0 -100 l-200 0 l0 100 ZM0 -100 l0 200 l100 0 l0 -200 l-100 0 ZM300 100 l200 0 l0 -100 l-200 0 l0 100 ZM900 0 l0 -100 l-400 0 l0 100 l400 0 Z" /><glyph glyph-name="uni4E86" unicode="&#x4e86;" d="M800 800 l0 -100 l-100 0 l0 -100 l-100 0 l0 100 l-500 0 l0 100 l700 0 ZM600 500 l-100 0 l0 100 l100 0 l0 -100 ZM400 500 l100 0 l0 -600 l-200 0 l0 100 l100 0 l0 500 Z" /><glyph glyph-name="uni4E8C" unicode="&#x4e8c;" d="M100 600 l0 100 l700 0 l0 -100 l-700 0 ZM900 0 l0 -100 l-900 0 l0 100 l900 0 Z" /><glyph glyph-name="uni4E8E" unicode="&#x4e8e;" d="M900 500 l0 -100 l-400 0 l0 -500 l-200 0 l0 100 l100 0 l0 400 l-400 0 l0 100 l400 0 l0 200 l-300 0 l0 100 l700 0 l0 -100 l-300 0 l0 -200 l400 0 Z" /><glyph glyph-name="uni4E92" unicode="&#x4e92;" d="M600 400 l-300 0 l0 300 l-200 0 l0 100 l700 0 l0 -100 l-400 0 l0 -200 l300 0 l0 -300 l-100 0 l0 200 ZM900 0 l0 -100 l-900 0 l0 100 l500 0 l0 100 l-400 0 l0 100 l100 0 l0 200 l100 0 l0 -200 l300 0 l0 -200 l300 0 Z" /><glyph glyph-name="uni4E9B" unicode="&#x4e9b;" d="M400 400 l0 -100 l-200 0 l0 500 l100 0 l0 -200 l100 0 l0 -100 l-100 0 l0 -100 l100 0 ZM600 500 l0 -200 l-100 0 l0 500 l100 0 l0 -200 l200 0 l0 -100 l-200 0 ZM800 700 l100 0 l0 -100 l-100 0 l0 100 ZM100 300 l100 0 l0 -100 l-200 0 l0 400 l100 0 l0 -300 ZM600 200 l0 100 l200 0 l0 100 l100 0 l0 -200 l-200 0 l0 -100 l-500 0 l0 100 l400 0 ZM900 0 l0 -100 l-900 0 l0 100 l900 0 Z" /><glyph glyph-name="uni4EA4" unicode="&#x4ea4;" d="M700 600 l0 -200 l-100 0 l0 200 l-300 0 l0 -200 l-100 0 l0 200 l-200 0 l0 100 l400 0 l0 100 l100 0 l0 -100 l400 0 l0 -100 l-200 0 ZM0 300 l0 100 l200 0 l0 -100 l-200 0 ZM300 400 l100 0 l0 -200 l-100 0 l0 200 ZM500 200 l0 200 l100 0 l0 -200 l-100 0 ZM900 300 l-200 0 l0 100 l200 0 l0 -100 ZM500 100 l-100 0 l0 100 l100 0 l0 -100 ZM400 0 l-100 0 l0 100 l100 0 l0 -100 ZM600 100 l0 -100 l-100 0 l0 100 l100 0 ZM0 0 l300 0 l0 -100 l-300 0 l0 100 ZM600 -100 l0 100 l300 0 l0 -100 l-300 0 Z" /><glyph glyph-name="uni4EBA" unicode="&#x4eba;" d="M500 300 l-100 0 l0 500 l100 0 l0 -500 ZM300 100 l0 200 l100 0 l0 -200 l-100 0 ZM500 300 l100 0 l0 -200 l-100 0 l0 200 ZM300 0 l-100 0 l0 100 l100 0 l0 -100 ZM600 0 l0 100 l100 0 l0 -100 l-100 0 ZM0 -100 l0 100 l200 0 l0 -100 l-200 0 ZM700 0 l200 0 l0 -100 l-200 0 l0 100 Z" /><glyph glyph-name="uni4EC0" unicode="&#x4ec0;" d="M300 800 l0 -200 l-100 0 l0 200 l100 0 ZM900 500 l0 -100 l-300 0 l0 -500 l-100 0 l0 500 l-200 0 l0 100 l200 0 l0 300 l100 0 l0 -300 l300 0 ZM0 500 l100 0 l0 100 l100 0 l0 -700 l-100 0 l0 500 l-100 0 l0 100 Z" /><glyph glyph-name="uni4ED8" unicode="&#x4ed8;" d="M300 800 l100 0 l0 -200 l-100 0 l0 200 ZM800 600 l100 0 l0 -100 l-100 0 l0 -600 l-200 0 l0 100 l100 0 l0 500 l-300 0 l0 100 l300 0 l0 200 l100 0 l0 -200 ZM100 500 l100 0 l0 100 l100 0 l0 -700 l-100 0 l0 500 l-100 0 l0 100 ZM100 300 l-100 0 l0 100 l100 0 l0 -100 ZM400 300 l0 100 l100 0 l0 -100 l-100 0 ZM600 100 l-100 0 l0 200 l100 0 l0 -200 Z" /><glyph glyph-name="uni4EE5" unicode="&#x4ee5;" d="M700 200 l-100 0 l0 600 l100 0 l0 -600 ZM100 100 l100 0 l0 -100 l-200 0 l0 700 l100 0 l0 -600 ZM200 700 l100 0 l0 -100 l-100 0 l0 100 ZM400 400 l-100 0 l0 200 l100 0 l0 -200 ZM400 200 l0 -100 l-200 0 l0 100 l200 0 ZM500 0 l0 200 l100 0 l0 -200 l-100 0 ZM700 200 l100 0 l0 -200 l-100 0 l0 200 ZM300 -100 l0 100 l200 0 l0 -100 l-200 0 ZM800 -100 l0 100 l100 0 l0 -100 l-100 0 Z" /><glyph glyph-name="uni4EF7" unicode="&#x4ef7;" d="M200 800 l100 0 l0 -200 l-100 0 l0 200 ZM500 800 l200 0 l0 -100 l-200 0 l0 100 ZM500 600 l-100 0 l0 100 l100 0 l0 -100 ZM700 600 l0 100 l100 0 l0 -100 l-100 0 ZM0 500 l100 0 l0 100 l100 0 l0 -700 l-100 0 l0 500 l-100 0 l0 100 ZM400 500 l-100 0 l0 100 l100 0 l0 -100 ZM800 500 l0 100 l100 0 l0 -100 l-100 0 ZM400 400 l100 0 l0 -400 l-100 0 l0 400 ZM700 400 l100 0 l0 -500 l-100 0 l0 500 ZM400 -100 l-100 0 l0 100 l100 0 l0 -100 Z" /><glyph glyph-name="uni4F1A" unicode="&#x4f1a;" d="M600 700 l-300 0 l0 100 l300 0 l0 -100 ZM200 700 l100 0 l0 -100 l-100 0 l0 100 ZM700 700 l0 -100 l-100 0 l0 100 l100 0 ZM100 500 l0 100 l100 0 l0 -100 l-100 0 ZM700 500 l0 100 l100 0 l0 -100 l-100 0 ZM100 400 l-100 0 l0 100 l100 0 l0 -100 ZM700 500 l0 -100 l-500 0 l0 100 l500 0 ZM800 400 l0 100 l100 0 l0 -100 l-100 0 ZM900 300 l0 -100 l-500 0 l0 -100 l-100 0 l0 100 l-300 0 l0 100 l900 0 ZM100 0 l100 0 l0 100 l100 0 l0 -100 l300 0 l0 -100 l-500 0 l0 100 ZM600 100 l100 0 l0 -100 l-100 0 l0 100 ZM800 0 l0 -100 l-100 0 l0 100 l100 0 Z" /><glyph glyph-name="uni4F5C" unicode="&#x4f5c;" d="M200 800 l100 0 l0 -200 l-100 0 l0 200 ZM600 600 l0 -100 l200 0 l0 -100 l-200 0 l0 -200 l300 0 l0 -100 l-300 0 l0 -200 l-100 0 l0 700 l-100 0 l0 200 l100 0 l0 -100 l400 0 l0 -100 l-300 0 ZM0 500 l100 0 l0 100 l100 0 l0 -700 l-100 0 l0 500 l-100 0 l0 100 ZM400 500 l-100 0 l0 100 l100 0 l0 -100 Z" /><glyph glyph-name="uni4F7F" unicode="&#x4f7f;" d="M300 800 l0 -200 l-100 0 l0 200 l100 0 ZM900 600 l-200 0 l0 -100 l200 0 l0 -300 l-200 0 l0 -200 l-100 0 l0 100 l-100 0 l0 100 l-200 0 l0 100 l100 0 l0 200 l200 0 l0 100 l-200 0 l0 100 l200 0 l0 100 l100 0 l0 -100 l200 0 l0 -100 ZM0 500 l100 0 l0 100 l100 0 l0 -700 l-100 0 l0 500 l-100 0 l0 100 ZM600 400 l-100 0 l0 -100 l100 0 l0 100 ZM800 300 l0 100 l-100 0 l0 -100 l100 0 ZM300 0 l300 0 l0 -100 l-300 0 l0 100 ZM900 -100 l-200 0 l0 100 l200 0 l0 -100 Z" /><glyph glyph-name="uni4F8B" unicode="&#x4f8b;" d="M100 800 l100 0 l0 -900 l-100 0 l0 500 l-100 0 l0 100 l100 0 l0 300 ZM700 700 l-200 0 l0 -100 l100 0 l0 -500 l-100 0 l0 100 l-100 0 l0 100 l100 0 l0 200 l-100 0 l0 200 l-100 0 l0 100 l400 0 l0 -100 ZM800 800 l100 0 l0 -900 l-200 0 l0 100 l100 0 l0 200 l-100 0 l0 400 l100 0 l0 200 ZM400 400 l-100 0 l0 100 l100 0 l0 -100 ZM500 0 l-100 0 l0 100 l100 0 l0 -100 ZM400 -100 l-100 0 l0 100 l100 0 l0 -100 Z" /><glyph glyph-name="uni4F9B" unicode="&#x4f9b;" d="M200 800 l100 0 l0 -200 l-100 0 l0 200 ZM900 500 l-100 0 l0 -200 l100 0 l0 -100 l-600 0 l0 100 l100 0 l0 200 l-100 0 l0 100 l100 0 l0 200 l100 0 l0 -200 l200 0 l0 200 l100 0 l0 -200 l100 0 l0 -100 ZM0 500 l100 0 l0 100 l100 0 l0 -700 l-100 0 l0 500 l-100 0 l0 100 ZM700 300 l0 200 l-200 0 l0 -200 l200 0 ZM500 0 l-100 0 l0 100 l100 0 l0 -100 ZM700 0 l0 100 l100 0 l0 -100 l-100 0 ZM400 -100 l-100 0 l0 100 l100 0 l0 -100 ZM900 -100 l-100 0 l0 100 l100 0 l0 -100 Z" /><glyph glyph-name="uni4FBF" unicode="&#x4fbf;" d="M300 800 l0 -200 l-100 0 l0 200 l100 0 ZM900 800 l0 -100 l-100 0 l0 -100 l-100 0 l0 -100 l100 0 l0 100 l100 0 l0 -400 l-200 0 l0 -200 l-100 0 l0 100 l-100 0 l0 100 l-200 0 l0 100 l100 0 l0 300 l100 0 l0 -100 l100 0 l0 100 l-100 0 l0 100 l-100 0 l0 100 l500 0 ZM0 500 l100 0 l0 100 l100 0 l0 -700 l-100 0 l0 500 l-100 0 l0 100 ZM600 400 l-100 0 l0 -100 l100 0 l0 100 ZM800 300 l0 100 l-100 0 l0 -100 l100 0 ZM300 0 l300 0 l0 -100 l-300 0 l0 100 ZM900 -100 l-200 0 l0 100 l200 0 l0 -100 Z" /><glyph glyph-name="uni4FE1" unicode="&#x4fe1;" d="M200 600 l0 200 l100 0 l0 -200 l-100 0 ZM700 700 l200 0 l0 -100 l-500 0 l0 100 l200 0 l0 100 l100 0 l0 -100 ZM0 500 l100 0 l0 100 l100 0 l0 -700 l-100 0 l0 500 l-100 0 l0 100 ZM800 400 l-300 0 l0 100 l300 0 l0 -100 ZM900 300 l0 -400 l-500 0 l0 400 l500 0 ZM800 0 l0 200 l-300 0 l0 -200 l300 0 Z" /><glyph glyph-name="uni5019" unicode="&#x5019;" d="M300 800 l0 -200 l-100 0 l0 200 l100 0 ZM600 500 l0 -100 l300 0 l0 -100 l-200 0 l0 -100 l200 0 l0 -100 l-200 0 l0 -100 l-100 0 l0 100 l-100 0 l0 100 l100 0 l0 100 l-100 0 l0 200 l-100 0 l0 100 l300 0 l0 100 l-200 0 l0 100 l300 0 l0 -200 l100 0 l0 -100 l-300 0 ZM0 500 l100 0 l0 100 l100 0 l0 -700 l-100 0 l0 500 l-100 0 l0 100 ZM400 300 l100 0 l0 -100 l-100 0 l0 -100 l-100 0 l0 400 l100 0 l0 -200 ZM400 -100 l0 100 l200 0 l0 -100 l-200 0 ZM900 -100 l-200 0 l0 100 l200 0 l0 -100 Z" /><glyph glyph-name="uni505A" unicode="&#x505a;" d="M200 800 l100 0 l0 -200 l-100 0 l0 200 ZM700 200 l-100 0 l0 -200 l-300 0 l0 400 l100 0 l0 100 l-100 0 l0 100 l100 0 l0 200 l100 0 l0 -200 l100 0 l0 -100 l-100 0 l0 -100 l100 0 l0 -100 l100 0 l0 -100 ZM800 600 l100 0 l0 -400 l-100 0 l0 300 l-100 0 l0 300 l100 0 l0 -200 ZM0 500 l100 0 l0 100 l100 0 l0 -700 l-100 0 l0 500 l-100 0 l0 100 ZM700 500 l0 -100 l-100 0 l0 100 l100 0 ZM400 100 l100 0 l0 200 l-100 0 l0 -200 ZM700 0 l0 200 l100 0 l0 -200 l-100 0 ZM700 -100 l-100 0 l0 100 l100 0 l0 -100 ZM900 0 l0 -100 l-100 0 l0 100 l100 0 Z" /><glyph glyph-name="uni5143" unicode="&#x5143;" d="M200 700 l0 100 l500 0 l0 -100 l-500 0 ZM600 0 l-100 0 l0 400 l-100 0 l0 -300 l-100 0 l0 300 l-300 0 l0 100 l900 0 l0 -100 l-300 0 l0 -400 ZM600 -100 l0 100 l200 0 l0 200 l100 0 l0 -300 l-300 0 ZM300 0 l-100 0 l0 100 l100 0 l0 -100 ZM0 -100 l0 100 l200 0 l0 -100 l-200 0 Z" /><glyph glyph-name="uni5149" unicode="&#x5149;" d="M600 300 l0 -300 l-100 0 l0 300 l-100 0 l0 -200 l-100 0 l0 200 l-300 0 l0 100 l400 0 l0 400 l100 0 l0 -400 l400 0 l0 -100 l-300 0 ZM100 700 l100 0 l0 -100 l-100 0 l0 100 ZM700 700 l100 0 l0 -100 l-100 0 l0 100 ZM300 600 l0 -100 l-100 0 l0 100 l100 0 ZM600 600 l100 0 l0 -100 l-100 0 l0 100 ZM300 0 l-100 0 l0 100 l100 0 l0 -100 ZM600 -100 l0 100 l200 0 l0 100 l100 0 l0 -200 l-300 0 ZM0 -100 l0 100 l200 0 l0 -100 l-200 0 Z" /><glyph glyph-name="uni5165" unicode="&#x5165;" d="M200 800 l200 0 l0 -100 l-200 0 l0 100 ZM500 700 l0 -300 l-100 0 l0 300 l100 0 ZM300 200 l0 200 l100 0 l0 -200 l-100 0 ZM500 400 l100 0 l0 -200 l-100 0 l0 200 ZM200 0 l0 200 l100 0 l0 -200 l-100 0 ZM600 200 l100 0 l0 -200 l-100 0 l0 200 ZM0 -100 l0 100 l200 0 l0 -100 l-200 0 ZM700 0 l200 0 l0 -100 l-200 0 l0 100 Z" /><glyph glyph-name="uni5173" unicode="&#x5173;" d="M200 700 l0 100 l100 0 l0 -100 l-100 0 ZM600 800 l100 0 l0 -100 l-100 0 l0 100 ZM500 300 l0 -100 l-100 0 l0 100 l-400 0 l0 100 l400 0 l0 100 l-300 0 l0 100 l200 0 l0 100 l100 0 l0 -100 l100 0 l0 100 l100 0 l0 -100 l200 0 l0 -100 l-300 0 l0 -100 l400 0 l0 -100 l-400 0 ZM400 100 l-100 0 l0 100 l100 0 l0 -100 ZM600 200 l0 -100 l-100 0 l0 100 l100 0 ZM300 0 l-100 0 l0 100 l100 0 l0 -100 ZM700 100 l0 -100 l-100 0 l0 100 l100 0 ZM0 -100 l0 100 l200 0 l0 -100 l-200 0 ZM900 -100 l-200 0 l0 100 l200 0 l0 -100 Z" /><glyph glyph-name="uni518C" unicode="&#x518c;" d="M800 500 l100 0 l0 -100 l-100 0 l0 -500 l-200 0 l0 100 l100 0 l0 400 l-100 0 l0 -300 l-100 0 l0 300 l-100 0 l0 -300 l100 0 l0 -100 l-100 0 l0 -100 l-200 0 l0 100 l100 0 l0 400 l-100 0 l0 -300 l-100 0 l0 300 l-100 0 l0 100 l100 0 l0 300 l300 0 l0 -300 l100 0 l0 300 l300 0 l0 -300 ZM200 500 l100 0 l0 200 l-100 0 l0 -200 ZM600 500 l100 0 l0 200 l-100 0 l0 -200 ZM0 -100 l0 200 l100 0 l0 -200 l-100 0 Z" /><glyph glyph-name="uni5199" unicode="&#x5199;" d="M900 800 l0 -300 l-100 0 l0 200 l-500 0 l0 -100 l400 0 l0 -100 l-400 0 l0 -100 l500 0 l0 -400 l-100 0 l0 300 l-600 0 l0 100 l100 0 l0 300 l-100 0 l0 -200 l-100 0 l0 300 l900 0 ZM600 200 l0 -100 l-600 0 l0 100 l600 0 ZM500 -100 l0 100 l200 0 l0 -100 l-200 0 Z" /><glyph glyph-name="uni51FA" unicode="&#x51fa;" d="M800 300 l100 0 l0 -400 l-900 0 l0 400 l100 0 l0 -300 l300 0 l0 300 l-300 0 l0 400 l100 0 l0 -300 l200 0 l0 400 l100 0 l0 -400 l200 0 l0 300 l100 0 l0 -400 l-300 0 l0 -300 l300 0 l0 300 Z" /><glyph glyph-name="uni5206" unicode="&#x5206;" d="M400 800 l0 -200 l-100 0 l0 200 l100 0 ZM500 800 l100 0 l0 -200 l-100 0 l0 200 ZM200 600 l100 0 l0 -100 l-100 0 l0 100 ZM600 500 l0 100 l100 0 l0 -100 l-100 0 ZM0 500 l200 0 l0 -100 l-200 0 l0 100 ZM700 500 l200 0 l0 -100 l-200 0 l0 100 ZM700 400 l0 -500 l-200 0 l0 100 l100 0 l0 300 l-200 0 l0 -200 l-100 0 l0 200 l-100 0 l0 100 l500 0 ZM300 0 l-100 0 l0 100 l100 0 l0 -100 ZM200 -100 l-100 0 l0 100 l100 0 l0 -100 Z" /><glyph glyph-name="uni5236" unicode="&#x5236;" d="M700 200 l-100 0 l0 -200 l-100 0 l0 200 l-100 0 l0 -300 l-100 0 l0 300 l-200 0 l0 -200 l-100 0 l0 300 l300 0 l0 100 l-300 0 l0 200 l100 0 l0 -100 l200 0 l0 100 l-200 0 l0 200 l100 0 l0 -100 l100 0 l0 100 l100 0 l0 -100 l200 0 l0 -100 l-200 0 l0 -100 l200 0 l0 100 l100 0 l0 -400 ZM800 800 l100 0 l0 -900 l-200 0 l0 100 l100 0 l0 800 ZM400 300 l200 0 l0 100 l-200 0 l0 -100 Z" /><glyph glyph-name="uni524D" unicode="&#x524d;" d="M700 700 l200 0 l0 -800 l-200 0 l0 100 l100 0 l0 600 l-300 0 l0 -700 l-200 0 l0 100 l100 0 l0 100 l-200 0 l0 -200 l-100 0 l0 700 l-100 0 l0 100 l300 0 l0 100 l100 0 l0 -100 l200 0 l0 100 l100 0 l0 -100 ZM400 400 l0 100 l-200 0 l0 -100 l200 0 ZM700 100 l-100 0 l0 400 l100 0 l0 -400 ZM400 200 l0 100 l-200 0 l0 -100 l200 0 Z" /><glyph glyph-name="uni52A0" unicode="&#x52a0;" d="M300 600 l200 0 l0 -700 l-200 0 l0 100 l100 0 l0 500 l-100 0 l0 -300 l-100 0 l0 300 l-200 0 l0 100 l200 0 l0 200 l100 0 l0 -200 ZM900 700 l0 -700 l-300 0 l0 700 l300 0 ZM800 600 l-100 0 l0 -500 l100 0 l0 500 ZM100 0 l0 200 l100 0 l0 -200 l-100 0 ZM100 -100 l-100 0 l0 100 l100 0 l0 -100 Z" /><glyph glyph-name="uni52A1" unicode="&#x52a1;" d="M600 700 l-200 0 l0 -100 l-100 0 l0 100 l-100 0 l0 100 l600 0 l0 -100 l-100 0 l0 -100 l-100 0 l0 100 ZM200 600 l-100 0 l0 100 l100 0 l0 -100 ZM600 600 l0 -100 l-200 0 l0 100 l200 0 ZM400 500 l0 -100 l-200 0 l0 100 l200 0 ZM700 500 l0 -100 l-100 0 l0 100 l100 0 ZM0 400 l200 0 l0 -100 l-200 0 l0 100 ZM500 400 l0 -100 l200 0 l0 -400 l-200 0 l0 100 l100 0 l0 200 l-100 0 l0 -100 l-100 0 l0 100 l-200 0 l0 100 l200 0 l0 100 l100 0 ZM700 400 l200 0 l0 -100 l-200 0 l0 100 ZM400 0 l-100 0 l0 100 l100 0 l0 -100 ZM100 -100 l0 100 l200 0 l0 -100 l-200 0 Z" /><glyph glyph-name="uni534E" unicode="&#x534e;" d="M300 800 l100 0 l0 -100 l-100 0 l0 100 ZM700 600 l0 -100 l-100 0 l0 -100 l-100 0 l0 100 l-100 0 l0 100 l100 0 l0 200 l100 0 l0 -200 l100 0 ZM200 300 l0 200 l-100 0 l0 100 l100 0 l0 100 l100 0 l0 -400 l-100 0 ZM700 700 l100 0 l0 -100 l-100 0 l0 100 ZM0 500 l100 0 l0 -100 l-100 0 l0 100 ZM800 400 l0 100 l100 0 l0 -200 l-300 0 l0 100 l200 0 ZM900 200 l0 -100 l-400 0 l0 -200 l-100 0 l0 200 l-400 0 l0 100 l400 0 l0 100 l100 0 l0 -100 l400 0 Z" /><glyph glyph-name="uni53C8" unicode="&#x53c8;" d="M800 500 l-100 0 l0 200 l-600 0 l0 100 l700 0 l0 -300 ZM100 500 l0 100 l100 0 l0 -100 l-100 0 ZM200 500 l100 0 l0 -200 l-100 0 l0 200 ZM700 500 l0 -200 l-100 0 l0 200 l100 0 ZM300 200 l0 100 l100 0 l0 -100 l-100 0 ZM500 300 l100 0 l0 -100 l-100 0 l0 100 ZM400 100 l0 100 l100 0 l0 -100 l-100 0 ZM400 0 l-100 0 l0 100 l100 0 l0 -100 ZM500 0 l0 100 l100 0 l0 -100 l-100 0 ZM0 0 l300 0 l0 -100 l-300 0 l0 100 ZM900 0 l0 -100 l-300 0 l0 100 l300 0 Z" /><glyph glyph-name="uni53D1" unicode="&#x53d1;" d="M300 500 l0 -100 l500 0 l0 -200 l-100 0 l0 100 l-300 0 l0 -100 l-100 0 l0 100 l-100 0 l0 200 l-200 0 l0 100 l100 0 l0 200 l100 0 l0 -200 l100 0 l0 200 l100 0 l0 -200 l300 0 l0 100 l100 0 l0 -100 l100 0 l0 -100 l-600 0 ZM600 700 l0 100 l100 0 l0 -100 l-100 0 ZM100 100 l0 200 l100 0 l0 -200 l-100 0 ZM400 100 l0 100 l100 0 l0 -100 l-100 0 ZM700 100 l-100 0 l0 100 l100 0 l0 -100 ZM0 -100 l0 200 l100 0 l0 -200 l-100 0 ZM600 0 l-100 0 l0 100 l100 0 l0 -100 ZM200 0 l300 0 l0 -100 l-300 0 l0 100 ZM600 -100 l0 100 l300 0 l0 -100 l-300 0 Z" /><glyph glyph-name="uni53D6" unicode="&#x53d6;" d="M500 100 l100 0 l0 -100 l-100 0 l0 -100 l-100 0 l0 200 l-100 0 l0 100 l100 0 l0 100 l-200 0 l0 -200 l100 0 l0 -100 l-300 0 l0 100 l100 0 l0 600 l-100 0 l0 100 l600 0 l0 -100 l-100 0 l0 -600 ZM200 700 l0 -100 l200 0 l0 100 l-200 0 ZM900 700 l0 -300 l-100 0 l0 200 l-200 0 l0 100 l300 0 ZM200 400 l200 0 l0 100 l-200 0 l0 -100 ZM600 400 l0 100 l100 0 l0 -100 l-100 0 ZM700 200 l0 200 l100 0 l0 -200 l-100 0 ZM700 100 l-100 0 l0 100 l100 0 l0 -100 ZM900 0 l-100 0 l0 200 l100 0 l0 -200 Z" /><glyph glyph-name="uni53EA" unicode="&#x53ea;" d="M800 300 l-700 0 l0 500 l700 0 l0 -500 ZM700 400 l0 300 l-500 0 l0 -300 l500 0 ZM300 100 l-100 0 l0 100 l100 0 l0 -100 ZM600 100 l0 100 l100 0 l0 -100 l-100 0 ZM200 0 l-100 0 l0 100 l100 0 l0 -100 ZM700 0 l0 100 l100 0 l0 -100 l-100 0 ZM100 -100 l-100 0 l0 100 l100 0 l0 -100 ZM800 -100 l0 100 l100 0 l0 -100 l-100 0 Z" /><glyph glyph-name="uni53EF" unicode="&#x53ef;" d="M900 800 l0 -100 l-100 0 l0 -700 l-100 0 l0 700 l-700 0 l0 100 l900 0 ZM500 100 l-400 0 l0 500 l400 0 l0 -500 ZM200 200 l200 0 l0 300 l-200 0 l0 -300 ZM500 -100 l0 100 l200 0 l0 -100 l-200 0 Z" /><glyph glyph-name="uni53F7" unicode="&#x53f7;" d="M700 500 l200 0 l0 -100 l-500 0 l0 -100 l300 0 l0 -300 l-100 0 l0 200 l-400 0 l0 100 l100 0 l0 100 l-300 0 l0 100 l200 0 l0 300 l500 0 l0 -300 ZM600 500 l0 200 l-300 0 l0 -200 l300 0 ZM400 -100 l0 100 l200 0 l0 -100 l-200 0 Z" /><glyph glyph-name="uni5408" unicode="&#x5408;" d="M600 700 l-300 0 l0 100 l300 0 l0 -100 ZM200 700 l100 0 l0 -100 l-100 0 l0 100 ZM700 700 l0 -100 l-100 0 l0 100 l100 0 ZM100 500 l0 100 l100 0 l0 -100 l-100 0 ZM700 500 l0 100 l100 0 l0 -100 l-100 0 ZM100 400 l-100 0 l0 100 l100 0 l0 -100 ZM700 500 l0 -100 l-500 0 l0 100 l500 0 ZM800 400 l0 100 l100 0 l0 -100 l-100 0 ZM800 300 l0 -400 l-700 0 l0 400 l700 0 ZM700 0 l0 200 l-500 0 l0 -200 l500 0 Z" /><glyph glyph-name="uni540C" unicode="&#x540c;" d="M900 800 l0 -900 l-200 0 l0 100 l100 0 l0 700 l-700 0 l0 -800 l-100 0 l0 900 l900 0 ZM200 500 l0 100 l500 0 l0 -100 l-500 0 ZM700 0 l-500 0 l0 400 l500 0 l0 -400 ZM600 100 l0 200 l-300 0 l0 -200 l300 0 Z" /><glyph glyph-name="uni540D" unicode="&#x540d;" d="M400 600 l0 -100 l-100 0 l0 100 l-100 0 l0 200 l100 0 l0 -100 l500 0 l0 -200 l-100 0 l0 100 l-300 0 ZM200 500 l-100 0 l0 100 l100 0 l0 -100 ZM900 300 l0 -400 l-700 0 l0 300 l-200 0 l0 100 l300 0 l0 100 l100 0 l0 100 l100 0 l0 -100 l100 0 l0 -100 l300 0 ZM700 400 l-100 0 l0 100 l100 0 l0 -100 ZM800 0 l0 200 l-500 0 l0 -200 l500 0 Z" /><glyph glyph-name="uni5458" unicode="&#x5458;" d="M200 500 l0 300 l500 0 l0 -300 l-500 0 ZM300 700 l0 -100 l300 0 l0 100 l-300 0 ZM800 400 l0 -300 l-100 0 l0 200 l-500 0 l0 -200 l-100 0 l0 300 l700 0 ZM500 100 l-100 0 l0 100 l100 0 l0 -100 ZM400 0 l-100 0 l0 100 l100 0 l0 -100 ZM700 0 l-100 0 l0 100 l100 0 l0 -100 ZM100 -100 l0 100 l200 0 l0 -100 l-200 0 ZM800 0 l0 -100 l-100 0 l0 100 l100 0 Z" /><glyph glyph-name="uni548C" unicode="&#x548c;" d="M400 800 l100 0 l0 -100 l-100 0 l0 100 ZM900 700 l0 -700 l-400 0 l0 200 l-100 0 l0 -300 l-100 0 l0 300 l-100 0 l0 200 l-200 0 l0 100 l300 0 l0 100 l-200 0 l0 100 l300 0 l0 -200 l100 0 l0 200 l400 0 ZM800 600 l-200 0 l0 -500 l200 0 l0 500 ZM400 400 l0 -100 l100 0 l0 100 l-100 0 ZM200 100 l-100 0 l0 100 l100 0 l0 -100 ZM100 0 l-100 0 l0 100 l100 0 l0 -100 Z" /><glyph glyph-name="uni5565" unicode="&#x5565;" d="M800 700 l-300 0 l0 100 l300 0 l0 -100 ZM800 600 l0 -100 l-100 0 l0 -100 l200 0 l0 -100 l-100 0 l0 -100 l-300 0 l0 100 l-200 0 l0 -200 l-300 0 l0 600 l300 0 l0 -100 l100 0 l0 -100 l-100 0 l0 -100 l300 0 l0 100 l-100 0 l0 100 l300 0 ZM400 700 l100 0 l0 -100 l-100 0 l0 100 ZM900 700 l0 -100 l-100 0 l0 100 l100 0 ZM100 200 l100 0 l0 400 l-100 0 l0 -400 ZM800 0 l0 200 l100 0 l0 -300 l-500 0 l0 300 l100 0 l0 -200 l300 0 Z" /><glyph glyph-name="uni55D6" unicode="&#x55d6;" d="M700 700 l200 0 l0 -500 l-100 0 l0 -100 l-100 0 l0 100 l-200 0 l0 -100 l-100 0 l0 100 l-100 0 l0 -100 l-300 0 l0 500 l300 0 l0 100 l100 0 l0 -200 l100 0 l0 -100 l-100 0 l0 -100 l200 0 l0 500 l100 0 l0 -100 ZM400 800 l100 0 l0 -100 l-100 0 l0 100 ZM700 500 l100 0 l0 100 l-100 0 l0 -100 ZM100 200 l100 0 l0 300 l-100 0 l0 -300 ZM700 300 l100 0 l0 100 l-100 0 l0 -100 ZM500 0 l0 100 l200 0 l0 -100 l-200 0 ZM300 -100 l0 100 l200 0 l0 -100 l-200 0 ZM900 -100 l-200 0 l0 100 l200 0 l0 -100 Z" /><glyph glyph-name="uni5668" unicode="&#x5668;" d="M900 800 l0 -300 l-100 0 l0 -100 l100 0 l0 -100 l-200 0 l0 -100 l200 0 l0 -300 l-400 0 l0 300 l100 0 l0 100 l-300 0 l0 -100 l100 0 l0 -300 l-400 0 l0 300 l200 0 l0 100 l-200 0 l0 100 l400 0 l0 100 l100 0 l0 -100 l200 0 l0 100 l-200 0 l0 300 l400 0 ZM400 800 l0 -300 l-400 0 l0 300 l400 0 ZM100 600 l200 0 l0 100 l-200 0 l0 -100 ZM800 600 l0 100 l-200 0 l0 -100 l200 0 ZM300 0 l0 100 l-200 0 l0 -100 l200 0 ZM800 0 l0 100 l-200 0 l0 -100 l200 0 Z" /><glyph glyph-name="uni56ED" unicode="&#x56ed;" d="M900 800 l0 -900 l-900 0 l0 900 l900 0 ZM800 700 l-700 0 l0 -300 l700 0 l0 300 ZM700 600 l0 -100 l-500 0 l0 100 l500 0 ZM300 0 l200 0 l0 300 l-100 0 l0 -200 l-100 0 l0 200 l-200 0 l0 -300 l100 0 l0 100 l100 0 l0 -100 ZM700 200 l100 0 l0 100 l-200 0 l0 -200 l100 0 l0 -100 l100 0 l0 100 l-100 0 l0 100 Z" /><glyph glyph-name="uni5728" unicode="&#x5728;" d="M900 700 l0 -100 l-600 0 l0 -200 l-100 0 l0 200 l-200 0 l0 100 l300 0 l0 100 l100 0 l0 -100 l500 0 ZM600 0 l300 0 l0 -100 l-600 0 l0 100 l200 0 l0 200 l-200 0 l0 100 l200 0 l0 200 l100 0 l0 -200 l200 0 l0 -100 l-200 0 l0 -200 ZM100 200 l0 200 l100 0 l0 -500 l-100 0 l0 200 l-100 0 l0 100 l100 0 Z" /><glyph glyph-name="uni5730" unicode="&#x5730;" d="M700 600 l200 0 l0 -400 l-100 0 l0 300 l-100 0 l0 -300 l-100 0 l0 200 l-100 0 l0 -400 l-100 0 l0 100 l-200 0 l0 300 l-200 0 l0 100 l200 0 l0 300 l100 0 l0 -300 l100 0 l0 200 l100 0 l0 -200 l100 0 l0 300 l100 0 l0 -200 ZM400 200 l0 200 l-100 0 l0 -200 l100 0 ZM0 0 l0 100 l200 0 l0 -100 l-200 0 ZM500 -100 l0 100 l300 0 l0 100 l100 0 l0 -200 l-400 0 Z" /><glyph glyph-name="uni5740" unicode="&#x5740;" d="M700 0 l200 0 l0 -100 l-600 0 l0 100 l100 0 l0 100 l-200 0 l0 300 l-200 0 l0 100 l200 0 l0 300 l100 0 l0 -300 l100 0 l0 100 l100 0 l0 -600 l100 0 l0 800 l100 0 l0 -300 l200 0 l0 -100 l-200 0 l0 -400 ZM300 200 l100 0 l0 200 l-100 0 l0 -200 ZM0 0 l0 100 l200 0 l0 -100 l-200 0 Z" /><glyph glyph-name="uni591A" unicode="&#x591a;" d="M600 600 l-200 0 l0 -100 l-100 0 l0 100 l-100 0 l0 200 l100 0 l0 -100 l400 0 l0 -200 l-100 0 l0 100 ZM200 500 l-100 0 l0 100 l100 0 l0 -100 ZM600 500 l0 -100 l-200 0 l0 100 l200 0 ZM400 400 l0 -100 l-400 0 l0 100 l400 0 ZM800 300 l0 -200 l-100 0 l0 100 l-300 0 l0 100 l400 0 ZM200 200 l200 0 l0 -100 l-200 0 l0 100 ZM400 100 l100 0 l0 -100 l100 0 l0 -100 l-600 0 l0 100 l400 0 l0 100 ZM700 0 l-100 0 l0 100 l100 0 l0 -100 Z" /><glyph glyph-name="uni5927" unicode="&#x5927;" d="M500 400 l0 -100 l-100 0 l0 100 l-400 0 l0 100 l400 0 l0 300 l100 0 l0 -300 l400 0 l0 -100 l-400 0 ZM300 100 l0 200 l100 0 l0 -200 l-100 0 ZM600 100 l-100 0 l0 200 l100 0 l0 -200 ZM300 0 l-100 0 l0 100 l100 0 l0 -100 ZM700 100 l0 -100 l-100 0 l0 100 l100 0 ZM0 -100 l0 100 l200 0 l0 -100 l-200 0 ZM900 -100 l-200 0 l0 100 l200 0 l0 -100 Z" /><glyph glyph-name="uni597D" unicode="&#x597d;" d="M700 400 l200 0 l0 -100 l-200 0 l0 -400 l-200 0 l0 100 l100 0 l0 300 l-200 0 l0 -100 l-100 0 l0 300 l-100 0 l0 -100 l-100 0 l0 100 l-100 0 l0 100 l200 0 l0 200 l100 0 l0 -200 l100 0 l0 -200 l200 0 l0 200 l100 0 l0 -200 ZM800 800 l0 -200 l-100 0 l0 100 l-300 0 l0 100 l400 0 ZM0 300 l0 100 l100 0 l0 -100 l-100 0 ZM100 200 l0 100 l100 0 l0 -100 l-100 0 ZM300 100 l-100 0 l0 100 l100 0 l0 -100 ZM200 0 l-100 0 l0 100 l100 0 l0 -100 ZM400 100 l0 -100 l-100 0 l0 100 l100 0 ZM100 -100 l-100 0 l0 100 l100 0 l0 -100 Z" /><glyph glyph-name="uni5982" unicode="&#x5982;" d="M300 800 l0 -200 l100 0 l0 -400 l-100 0 l0 300 l-100 0 l0 -100 l-100 0 l0 100 l-100 0 l0 100 l200 0 l0 200 l100 0 ZM900 700 l0 -700 l-400 0 l0 700 l400 0 ZM800 600 l-200 0 l0 -500 l200 0 l0 500 ZM0 300 l0 100 l100 0 l0 -100 l-100 0 ZM100 200 l0 100 l100 0 l0 -100 l-100 0 ZM300 100 l-100 0 l0 100 l100 0 l0 -100 ZM200 0 l-100 0 l0 100 l100 0 l0 -100 ZM400 100 l0 -100 l-100 0 l0 100 l100 0 ZM100 -100 l-100 0 l0 100 l100 0 l0 -100 Z" /><glyph glyph-name="uni59C6" unicode="&#x59c6;" d="M900 400 l-100 0 l0 -200 l100 0 l0 -100 l-100 0 l0 -200 l-200 0 l0 100 l100 0 l0 100 l-400 0 l0 200 l-100 0 l0 200 l-100 0 l0 -200 l-100 0 l0 300 l100 0 l0 200 l100 0 l0 -200 l100 0 l0 -100 l100 0 l0 300 l400 0 l0 -300 l100 0 l0 -100 ZM500 700 l0 -200 l100 0 l0 100 l100 0 l0 100 l-200 0 ZM600 200 l0 100 l100 0 l0 100 l-100 0 l0 -100 l-100 0 l0 100 l-100 0 l0 -200 l200 0 ZM100 300 l100 0 l0 -200 l-100 0 l0 200 ZM0 -100 l0 200 l100 0 l0 -200 l-100 0 ZM300 0 l-100 0 l0 100 l100 0 l0 -100 Z" /><glyph glyph-name="uni59CB" unicode="&#x59cb;" d="M300 800 l0 -200 l100 0 l0 -400 l-100 0 l0 300 l-100 0 l0 -100 l-100 0 l0 100 l-100 0 l0 100 l200 0 l0 200 l100 0 ZM600 800 l100 0 l0 -100 l-100 0 l0 100 ZM800 500 l0 100 l100 0 l0 -200 l-400 0 l0 300 l100 0 l0 -200 l200 0 ZM0 300 l0 100 l100 0 l0 -100 l-100 0 ZM100 200 l0 100 l100 0 l0 -100 l-100 0 ZM900 300 l0 -400 l-400 0 l0 400 l400 0 ZM300 100 l-100 0 l0 100 l100 0 l0 -100 ZM800 0 l0 200 l-200 0 l0 -200 l200 0 ZM200 0 l-100 0 l0 100 l100 0 l0 -100 ZM400 100 l0 -100 l-100 0 l0 100 l100 0 ZM100 -100 l-100 0 l0 100 l100 0 l0 -100 Z" /><glyph glyph-name="uni5B83" unicode="&#x5b83;" d="M900 700 l0 -200 l-100 0 l0 100 l-700 0 l0 -100 l-100 0 l0 200 l400 0 l0 100 l100 0 l0 -100 l400 0 ZM300 200 l0 -200 l-100 0 l0 500 l100 0 l0 -200 l200 0 l0 -100 l-200 0 ZM700 400 l0 -100 l-200 0 l0 100 l200 0 ZM700 0 l0 100 l100 0 l0 -200 l-500 0 l0 100 l400 0 Z" /><glyph glyph-name="uni5B9D" unicode="&#x5b9d;" d="M900 700 l0 -200 l-100 0 l0 100 l-700 0 l0 -100 l-100 0 l0 200 l400 0 l0 100 l100 0 l0 -100 l400 0 ZM800 500 l0 -100 l-300 0 l0 -100 l200 0 l0 -100 l-200 0 l0 -200 l400 0 l0 -100 l-900 0 l0 100 l400 0 l0 200 l-200 0 l0 100 l200 0 l0 100 l-300 0 l0 100 l700 0 ZM800 200 l0 -100 l-100 0 l0 100 l100 0 Z" /><glyph glyph-name="uni5B9E" unicode="&#x5b9e;" d="M900 700 l0 -200 l-100 0 l0 100 l-200 0 l0 -300 l300 0 l0 -100 l-300 0 l0 -100 l-100 0 l0 100 l-500 0 l0 100 l100 0 l0 100 l100 0 l0 -100 l300 0 l0 300 l-200 0 l0 -100 l-100 0 l0 100 l-100 0 l0 -100 l-100 0 l0 200 l400 0 l0 100 l100 0 l0 -100 l400 0 ZM400 500 l0 -100 l-100 0 l0 100 l100 0 ZM300 0 l0 100 l200 0 l0 -100 l-200 0 ZM800 0 l-200 0 l0 100 l200 0 l0 -100 ZM0 0 l300 0 l0 -100 l-300 0 l0 100 ZM900 0 l0 -100 l-100 0 l0 100 l100 0 Z" /><glyph glyph-name="uni5BF9" unicode="&#x5bf9;" d="M800 600 l100 0 l0 -100 l-100 0 l0 -600 l-200 0 l0 100 l100 0 l0 500 l-300 0 l0 -100 l-100 0 l0 200 l-300 0 l0 100 l400 0 l0 -100 l300 0 l0 200 l100 0 l0 -200 ZM100 400 l0 100 l100 0 l0 -100 l-100 0 ZM200 200 l0 200 l100 0 l0 -200 l-100 0 ZM500 400 l0 -100 l-100 0 l0 100 l100 0 ZM600 100 l-100 0 l0 200 l100 0 l0 -200 ZM200 100 l-100 0 l0 100 l100 0 l0 -100 ZM400 0 l-100 0 l0 200 l100 0 l0 -200 ZM100 0 l-100 0 l0 100 l100 0 l0 -100 Z" /><glyph glyph-name="uni5C0F" unicode="&#x5c0f;" d="M400 800 l100 0 l0 -900 l-200 0 l0 100 l100 0 l0 800 ZM100 300 l0 200 l100 0 l0 -200 l-100 0 ZM700 400 l0 100 l100 0 l0 -100 l-100 0 ZM800 400 l100 0 l0 -200 l-100 0 l0 200 ZM100 200 l-100 0 l0 100 l100 0 l0 -100 Z" /><glyph glyph-name="uni5E74" unicode="&#x5e74;" d="M900 200 l0 -100 l-400 0 l0 -200 l-100 0 l0 200 l-400 0 l0 100 l200 0 l0 300 l200 0 l0 100 l-300 0 l0 200 l100 0 l0 -100 l600 0 l0 -100 l-300 0 l0 -100 l200 0 l0 -100 l-200 0 l0 -200 l400 0 ZM100 500 l-100 0 l0 100 l100 0 l0 -100 ZM300 200 l100 0 l0 200 l-100 0 l0 -200 Z" /><glyph glyph-name="uni5E95" unicode="&#x5e95;" d="M900 600 l-100 0 l0 -100 l-100 0 l0 100 l-500 0 l0 -600 l-100 0 l0 700 l300 0 l0 100 l100 0 l0 -100 l400 0 l0 -100 ZM700 500 l0 -200 l200 0 l0 -100 l-200 0 l0 -100 l-100 0 l0 100 l-200 0 l0 -200 l100 0 l0 -100 l-200 0 l0 600 l400 0 ZM600 300 l0 100 l-200 0 l0 -100 l200 0 ZM500 0 l0 100 l100 0 l0 -100 l-100 0 ZM800 100 l0 -100 l-100 0 l0 100 l100 0 ZM100 -100 l-100 0 l0 100 l100 0 l0 -100 ZM700 -100 l-100 0 l0 100 l100 0 l0 -100 ZM900 0 l0 -100 l-100 0 l0 100 l100 0 Z" /><glyph glyph-name="uni5EFA" unicode="&#x5efa;" d="M300 800 l0 -200 l-100 0 l0 100 l-200 0 l0 100 l300 0 ZM900 600 l0 -100 l-100 0 l0 -100 l100 0 l0 -100 l-300 0 l0 -100 l300 0 l0 -100 l-300 0 l0 -100 l300 0 l0 -100 l-700 0 l0 100 l300 0 l0 100 l-200 0 l0 100 l200 0 l0 100 l-100 0 l0 100 l100 0 l0 100 l-200 0 l0 100 l200 0 l0 100 l-100 0 l0 100 l400 0 l0 -200 l100 0 ZM700 700 l-100 0 l0 -100 l100 0 l0 100 ZM300 200 l-100 0 l0 200 l-200 0 l0 100 l100 0 l0 100 l100 0 l0 -100 l100 0 l0 -300 ZM600 400 l100 0 l0 100 l-100 0 l0 -100 ZM0 200 l0 100 l100 0 l0 -100 l-100 0 ZM100 200 l100 0 l0 -200 l-100 0 l0 200 ZM100 -100 l-100 0 l0 100 l100 0 l0 -100 Z" /><glyph glyph-name="uni5F00" unicode="&#x5f00;" d="M700 400 l200 0 l0 -100 l-200 0 l0 -400 l-100 0 l0 400 l-300 0 l0 -300 l-100 0 l0 300 l-200 0 l0 100 l200 0 l0 300 l-100 0 l0 100 l700 0 l0 -100 l-100 0 l0 -300 ZM600 400 l0 300 l-300 0 l0 -300 l300 0 ZM200 -100 l-100 0 l0 100 l100 0 l0 -100 Z" /><glyph glyph-name="uni5F0F" unicode="&#x5f0f;" d="M600 500 l0 -300 l-100 0 l0 300 l-500 0 l0 100 l500 0 l0 200 l100 0 l0 -200 l200 0 l0 -100 l-200 0 ZM700 700 l0 100 l100 0 l0 -100 l-100 0 ZM800 700 l100 0 l0 -100 l-100 0 l0 100 ZM300 100 l200 0 l0 -100 l-300 0 l0 300 l-100 0 l0 100 l300 0 l0 -100 l-100 0 l0 -200 ZM700 0 l-100 0 l0 200 l100 0 l0 -200 ZM900 -100 l-200 0 l0 100 l100 0 l0 100 l100 0 l0 -200 ZM0 -100 l0 100 l200 0 l0 -100 l-200 0 Z" /><glyph glyph-name="uni5F97" unicode="&#x5f97;" d="M100 800 l100 0 l0 -200 l-100 0 l0 200 ZM900 400 l0 -100 l-100 0 l0 -100 l100 0 l0 -100 l-100 0 l0 -200 l-200 0 l0 100 l100 0 l0 100 l-200 0 l0 -100 l-100 0 l0 100 l-100 0 l0 100 l400 0 l0 100 l-400 0 l0 100 l100 0 l0 400 l400 0 l0 -400 l100 0 ZM500 700 l0 -100 l200 0 l0 100 l-200 0 ZM100 500 l-100 0 l0 100 l100 0 l0 -100 ZM200 600 l100 0 l0 -200 l-100 0 l0 200 ZM500 400 l200 0 l0 100 l-200 0 l0 -100 ZM0 300 l100 0 l0 100 l100 0 l0 -500 l-100 0 l0 300 l-100 0 l0 100 Z" /><glyph glyph-name="uni5FAE" unicode="&#x5fae;" d="M200 800 l0 -200 l-100 0 l0 200 l100 0 ZM600 500 l-300 0 l0 200 l100 0 l0 100 l100 0 l0 -100 l100 0 l0 -200 ZM800 600 l100 0 l0 -400 l-100 0 l0 300 l-100 0 l0 300 l100 0 l0 -200 ZM0 600 l100 0 l0 -100 l-100 0 l0 100 ZM200 500 l100 0 l0 -100 l-100 0 l0 100 ZM700 500 l0 -100 l-100 0 l0 100 l100 0 ZM200 0 l100 0 l0 -100 l-200 0 l0 300 l-100 0 l0 100 l100 0 l0 100 l100 0 l0 -400 ZM300 400 l300 0 l0 -100 l-300 0 l0 100 ZM700 300 l0 -100 l-100 0 l0 100 l100 0 ZM600 200 l0 -200 l100 0 l0 -100 l-200 0 l0 200 l-100 0 l0 -100 l-100 0 l0 200 l300 0 ZM700 0 l0 200 l100 0 l0 -200 l-100 0 ZM900 0 l0 -100 l-100 0 l0 100 l100 0 Z" /><glyph glyph-name="uni6027" unicode="&#x6027;" d="M300 500 l100 0 l0 -100 l-100 0 l0 -500 l-100 0 l0 900 l100 0 l0 -300 ZM700 500 l0 -200 l100 0 l0 -100 l-100 0 l0 -200 l200 0 l0 -100 l-500 0 l0 100 l200 0 l0 200 l-100 0 l0 100 l100 0 l0 200 l-200 0 l0 200 l100 0 l0 -100 l100 0 l0 200 l100 0 l0 -200 l200 0 l0 -100 l-200 0 ZM0 600 l100 0 l0 -400 l-100 0 l0 400 Z" /><glyph glyph-name="uni603B" unicode="&#x603b;" d="M200 700 l0 100 l100 0 l0 -100 l-100 0 ZM600 800 l100 0 l0 -100 l-100 0 l0 100 ZM500 300 l0 -100 l-100 0 l0 100 l-300 0 l0 300 l200 0 l0 100 l100 0 l0 -100 l100 0 l0 100 l100 0 l0 -100 l200 0 l0 -300 l-300 0 ZM700 400 l0 100 l-500 0 l0 -100 l500 0 ZM0 0 l0 200 l100 0 l0 -200 l-100 0 ZM200 200 l100 0 l0 -200 l-100 0 l0 200 ZM600 200 l0 -100 l-100 0 l0 100 l100 0 ZM800 200 l100 0 l0 -200 l-100 0 l0 200 ZM600 0 l0 100 l100 0 l0 -200 l-400 0 l0 100 l300 0 Z" /><glyph glyph-name="uni606F" unicode="&#x606f;" d="M800 200 l-300 0 l0 -100 l-100 0 l0 100 l-300 0 l0 500 l200 0 l0 100 l100 0 l0 -100 l400 0 l0 -500 ZM200 600 l0 -100 l500 0 l0 100 l-500 0 ZM700 300 l0 100 l-500 0 l0 -100 l500 0 ZM0 0 l0 200 l100 0 l0 -200 l-100 0 ZM800 200 l100 0 l0 -200 l-100 0 l0 200 ZM200 0 l0 100 l100 0 l0 -100 l-100 0 ZM600 0 l0 100 l100 0 l0 -200 l-400 0 l0 100 l300 0 Z" /><glyph glyph-name="uni60A8" unicode="&#x60a8;" d="M200 800 l100 0 l0 -100 l-100 0 l0 100 ZM900 700 l0 -200 l-100 0 l0 100 l-100 0 l0 -100 l100 0 l0 -100 l-100 0 l0 -200 l-200 0 l0 100 l100 0 l0 300 l-200 0 l0 200 l100 0 l0 -100 l400 0 ZM200 200 l-100 0 l0 300 l-100 0 l0 100 l100 0 l0 100 l100 0 l0 -500 ZM400 500 l-100 0 l0 100 l100 0 l0 -100 ZM500 500 l0 -100 l-100 0 l0 100 l100 0 ZM400 300 l-100 0 l0 100 l100 0 l0 -100 ZM900 400 l0 -100 l-100 0 l0 100 l100 0 ZM0 0 l0 200 l100 0 l0 -200 l-100 0 ZM200 200 l100 0 l0 -200 l-100 0 l0 200 ZM500 100 l-100 0 l0 100 l100 0 l0 -100 ZM800 200 l0 -100 l-100 0 l0 100 l100 0 ZM600 0 l0 100 l100 0 l0 -200 l-400 0 l0 100 l300 0 ZM900 100 l0 -100 l-100 0 l0 100 l100 0 Z" /><glyph glyph-name="uni60F3" unicode="&#x60f3;" d="M800 200 l-200 0 l0 -100 l-100 0 l0 100 l-100 0 l0 100 l-100 0 l0 -100 l-100 0 l0 200 l-100 0 l0 200 l-100 0 l0 100 l200 0 l0 100 l100 0 l0 -100 l100 0 l0 100 l400 0 l0 -600 ZM300 400 l100 0 l0 200 l-100 0 l0 -200 ZM700 500 l0 100 l-200 0 l0 -100 l200 0 ZM0 200 l0 200 l100 0 l0 -200 l-100 0 ZM500 300 l200 0 l0 100 l-200 0 l0 -100 ZM800 200 l100 0 l0 -200 l-100 0 l0 200 ZM100 0 l-100 0 l0 100 l100 0 l0 -100 ZM200 0 l0 100 l100 0 l0 -100 l-100 0 ZM600 0 l0 100 l100 0 l0 -200 l-400 0 l0 100 l300 0 Z" /><glyph glyph-name="uni610F" unicode="&#x610f;" d="M700 400 l0 -200 l-200 0 l0 -100 l-100 0 l0 100 l-200 0 l0 200 l-200 0 l0 100 l300 0 l0 100 l-200 0 l0 100 l300 0 l0 100 l100 0 l0 -100 l300 0 l0 -100 l-200 0 l0 -100 l300 0 l0 -100 l-200 0 ZM500 600 l-100 0 l0 -100 l100 0 l0 100 ZM600 300 l0 100 l-300 0 l0 -100 l300 0 ZM0 0 l0 200 l100 0 l0 -200 l-100 0 ZM800 200 l0 -100 l-100 0 l0 100 l100 0 ZM200 0 l0 100 l100 0 l0 -100 l-100 0 ZM600 0 l0 100 l100 0 l0 -200 l-400 0 l0 100 l300 0 ZM900 100 l0 -100 l-100 0 l0 100 l100 0 Z" /><glyph glyph-name="uni6211" unicode="&#x6211;" d="M600 500 l300 0 l0 -100 l-300 0 l0 -200 l-100 0 l0 200 l-200 0 l0 -100 l100 0 l0 -100 l-100 0 l0 -300 l-200 0 l0 100 l100 0 l0 100 l-200 0 l0 100 l200 0 l0 200 l-200 0 l0 100 l200 0 l0 100 l-100 0 l0 100 l200 0 l0 -200 l200 0 l0 300 l100 0 l0 -300 ZM300 800 l100 0 l0 -100 l-100 0 l0 100 ZM700 700 l0 100 l100 0 l0 -100 l-100 0 ZM800 600 l0 100 l100 0 l0 -100 l-100 0 ZM700 300 l100 0 l0 -100 l-100 0 l0 100 ZM700 0 l-100 0 l0 200 l100 0 l0 -200 ZM900 -100 l-200 0 l0 100 l100 0 l0 100 l100 0 l0 -200 ZM400 -100 l0 100 l200 0 l0 -100 l-200 0 Z" /><glyph glyph-name="uni6216" unicode="&#x6216;" d="M600 200 l-100 0 l0 400 l-500 0 l0 100 l500 0 l0 100 l100 0 l0 -100 l100 0 l0 100 l100 0 l0 -100 l100 0 l0 -100 l-300 0 l0 -400 ZM400 500 l0 -300 l-400 0 l0 300 l400 0 ZM300 300 l0 100 l-200 0 l0 -100 l200 0 ZM800 400 l0 -200 l-100 0 l0 200 l100 0 ZM700 0 l-100 0 l0 200 l100 0 l0 -200 ZM200 0 l0 100 l200 0 l0 -100 l-200 0 ZM900 -100 l-200 0 l0 100 l100 0 l0 100 l100 0 l0 -200 ZM0 -100 l0 100 l200 0 l0 -100 l-200 0 ZM600 -100 l-100 0 l0 100 l100 0 l0 -100 Z" /><glyph glyph-name="uni624D" unicode="&#x624d;" d="M700 600 l200 0 l0 -100 l-200 0 l0 -600 l-200 0 l0 100 l100 0 l0 500 l-100 0 l0 -200 l-100 0 l0 200 l-400 0 l0 100 l600 0 l0 200 l100 0 l0 -200 ZM400 200 l-100 0 l0 100 l100 0 l0 -100 ZM300 100 l-100 0 l0 100 l100 0 l0 -100 ZM0 0 l0 100 l200 0 l0 -100 l-200 0 Z" /><glyph glyph-name="uni6295" unicode="&#x6295;" d="M300 600 l200 0 l0 -100 l-200 0 l0 -100 l100 0 l0 -100 l-100 0 l0 -400 l-200 0 l0 100 l100 0 l0 200 l-100 0 l0 100 l100 0 l0 200 l-200 0 l0 100 l200 0 l0 200 l100 0 l0 -200 ZM800 600 l100 0 l0 -100 l-200 0 l0 200 l-100 0 l0 -100 l-100 0 l0 200 l300 0 l0 -200 ZM800 100 l-100 0 l0 200 l-200 0 l0 100 l300 0 l0 -300 ZM100 100 l-100 0 l0 100 l100 0 l0 -100 ZM500 100 l0 100 l100 0 l0 -100 l-100 0 ZM600 0 l0 100 l100 0 l0 -100 l-100 0 ZM400 -100 l0 100 l200 0 l0 -100 l-200 0 ZM700 -100 l0 100 l200 0 l0 -100 l-200 0 Z" /><glyph glyph-name="uni62E9" unicode="&#x62e9;" d="M400 500 l-100 0 l0 -100 l100 0 l0 -100 l-100 0 l0 -400 l-200 0 l0 100 l100 0 l0 200 l-100 0 l0 100 l100 0 l0 200 l-200 0 l0 100 l200 0 l0 200 l100 0 l0 -200 l100 0 l0 -100 ZM700 600 l0 100 l-100 0 l0 -100 l-100 0 l0 100 l-100 0 l0 100 l400 0 l0 -200 l-100 0 ZM600 600 l100 0 l0 -100 l-100 0 l0 100 ZM400 500 l200 0 l0 -100 l-200 0 l0 100 ZM900 400 l-200 0 l0 100 l200 0 l0 -100 ZM600 300 l0 100 l100 0 l0 -100 l100 0 l0 -100 l-100 0 l0 -100 l200 0 l0 -100 l-200 0 l0 -100 l-100 0 l0 100 l-200 0 l0 100 l200 0 l0 100 l-100 0 l0 100 l100 0 ZM100 100 l-100 0 l0 100 l100 0 l0 -100 Z" /><glyph glyph-name="uni6362" unicode="&#x6362;" d="M600 200 l0 -100 l-100 0 l0 100 l-300 0 l0 -300 l-200 0 l0 100 l100 0 l0 100 l-100 0 l0 100 l100 0 l0 300 l-100 0 l0 100 l100 0 l0 200 l100 0 l0 -200 l100 0 l0 100 l100 0 l0 -100 l200 0 l0 100 l-200 0 l0 100 l400 0 l0 -100 l-100 0 l0 -100 l100 0 l0 -300 l100 0 l0 -100 l-300 0 ZM200 300 l100 0 l0 200 l-100 0 l0 -200 ZM400 300 l100 0 l0 200 l-100 0 l0 -200 ZM700 500 l-100 0 l0 -200 l100 0 l0 200 ZM500 0 l-100 0 l0 100 l100 0 l0 -100 ZM700 100 l0 -100 l-100 0 l0 100 l100 0 ZM400 -100 l-100 0 l0 100 l100 0 l0 -100 ZM900 -100 l-200 0 l0 100 l200 0 l0 -100 Z" /><glyph glyph-name="uni63D0" unicode="&#x63d0;" d="M200 500 l0 -200 l100 0 l0 -100 l-100 0 l0 -300 l-200 0 l0 100 l100 0 l0 100 l-100 0 l0 100 l100 0 l0 300 l-100 0 l0 100 l100 0 l0 200 l100 0 l0 -200 l100 0 l0 -100 l-100 0 ZM900 300 l-200 0 l0 -100 l100 0 l0 -100 l-100 0 l0 -100 l200 0 l0 -100 l-400 0 l0 100 l100 0 l0 300 l-300 0 l0 100 l100 0 l0 400 l400 0 l0 -400 l100 0 l0 -100 ZM500 700 l0 -100 l200 0 l0 100 l-200 0 ZM500 400 l200 0 l0 100 l-200 0 l0 -100 ZM400 200 l100 0 l0 -200 l-100 0 l0 200 ZM400 -100 l-100 0 l0 100 l100 0 l0 -100 Z" /><glyph glyph-name="uni652F" unicode="&#x652f;" d="M500 500 l0 -100 l300 0 l0 -200 l-100 0 l0 100 l-600 0 l0 100 l300 0 l0 100 l-400 0 l0 100 l400 0 l0 200 l100 0 l0 -200 l400 0 l0 -100 l-400 0 ZM200 100 l0 100 l100 0 l0 -100 l-100 0 ZM700 100 l-100 0 l0 100 l100 0 l0 -100 ZM300 100 l300 0 l0 -100 l-300 0 l0 100 ZM0 0 l300 0 l0 -100 l-300 0 l0 100 ZM600 -100 l0 100 l300 0 l0 -100 l-300 0 Z" /><glyph glyph-name="uni6536" unicode="&#x6536;" d="M200 800 l100 0 l0 -900 l-100 0 l0 200 l-100 0 l0 -100 l-100 0 l0 700 l100 0 l0 -500 l100 0 l0 600 ZM700 500 l-200 0 l0 300 l100 0 l0 -200 l300 0 l0 -100 l-100 0 l0 -300 l-100 0 l0 300 ZM400 400 l0 100 l100 0 l0 -100 l-100 0 ZM500 400 l100 0 l0 -200 l-100 0 l0 200 ZM600 100 l0 100 l100 0 l0 -100 l-100 0 ZM600 0 l-100 0 l0 100 l100 0 l0 -100 ZM800 100 l0 -100 l-100 0 l0 100 l100 0 ZM500 -100 l-100 0 l0 100 l100 0 l0 -100 ZM900 0 l0 -100 l-100 0 l0 100 l100 0 Z" /><glyph glyph-name="uni6559" unicode="&#x6559;" d="M500 200 l100 0 l0 -100 l-200 0 l0 -200 l-200 0 l0 100 l100 0 l0 100 l-200 0 l0 100 l300 0 l0 100 l-100 0 l0 100 l-100 0 l0 -100 l-100 0 l0 100 l-100 0 l0 100 l300 0 l0 100 l-200 0 l0 100 l200 0 l0 100 l100 0 l0 -100 l100 0 l0 -100 l-100 0 l0 -100 l100 0 l0 -300 ZM800 600 l100 0 l0 -400 l-100 0 l0 300 l-100 0 l0 300 l100 0 l0 -200 ZM600 600 l0 -100 l-100 0 l0 100 l100 0 ZM700 500 l0 -100 l-100 0 l0 100 l100 0 ZM0 200 l0 100 l100 0 l0 -100 l-100 0 ZM600 300 l100 0 l0 -100 l-100 0 l0 100 ZM800 100 l-100 0 l0 100 l100 0 l0 -100 ZM700 0 l-100 0 l0 100 l100 0 l0 -100 ZM900 -100 l-100 0 l0 200 l100 0 l0 -200 ZM600 -100 l-100 0 l0 100 l100 0 l0 -100 Z" /><glyph glyph-name="uni65AF" unicode="&#x65af;" d="M900 500 l0 -100 l-100 0 l0 -500 l-100 0 l0 500 l-100 0 l0 -400 l-100 0 l0 100 l-100 0 l0 -100 l-100 0 l0 100 l-100 0 l0 -100 l-100 0 l0 100 l-100 0 l0 100 l100 0 l0 400 l-100 0 l0 100 l100 0 l0 100 l100 0 l0 -100 l100 0 l0 100 l100 0 l0 -100 l200 0 l0 -200 l300 0 ZM800 800 l0 -100 l-200 0 l0 100 l200 0 ZM500 200 l0 400 l-100 0 l0 -400 l100 0 ZM300 500 l-100 0 l0 -100 l100 0 l0 100 ZM200 300 l0 -100 l100 0 l0 100 l-100 0 ZM100 -100 l-100 0 l0 100 l100 0 l0 -100 ZM500 -100 l-100 0 l0 100 l100 0 l0 -100 Z" /><glyph glyph-name="uni65B9" unicode="&#x65b9;" d="M300 700 l0 100 l100 0 l0 -100 l-100 0 ZM900 600 l0 -100 l-500 0 l0 -100 l400 0 l0 -400 l-100 0 l0 300 l-300 0 l0 -100 l-100 0 l0 300 l-300 0 l0 100 l400 0 l0 100 l100 0 l0 -100 l400 0 ZM200 0 l0 200 l100 0 l0 -200 l-100 0 ZM0 -100 l0 100 l200 0 l0 -100 l-200 0 ZM500 -100 l0 100 l200 0 l0 -100 l-200 0 Z" /><glyph glyph-name="uni65E7" unicode="&#x65e7;" d="M0 800 l100 0 l0 -900 l-100 0 l0 900 ZM900 800 l0 -900 l-600 0 l0 900 l600 0 ZM800 700 l-400 0 l0 -300 l400 0 l0 300 ZM800 300 l-400 0 l0 -300 l400 0 l0 300 Z" /><glyph glyph-name="uni65F6" unicode="&#x65f6;" d="M800 600 l100 0 l0 -100 l-100 0 l0 -600 l-200 0 l0 100 l100 0 l0 500 l-300 0 l0 -100 l100 0 l0 -100 l-100 0 l0 -300 l-400 0 l0 700 l400 0 l0 -100 l300 0 l0 200 l100 0 l0 -200 ZM300 400 l0 200 l-200 0 l0 -200 l200 0 ZM300 100 l0 200 l-200 0 l0 -200 l200 0 ZM600 100 l-100 0 l0 200 l100 0 l0 -200 Z" /><glyph glyph-name="uni662F" unicode="&#x662f;" d="M900 0 l0 -100 l-600 0 l0 100 l100 0 l0 300 l-300 0 l0 100 l100 0 l0 400 l500 0 l0 -400 l100 0 l0 -100 l-300 0 l0 -100 l200 0 l0 -100 l-200 0 l0 -100 l400 0 ZM300 700 l0 -100 l300 0 l0 100 l-300 0 ZM300 500 l0 -100 l300 0 l0 100 l-300 0 ZM200 200 l100 0 l0 -200 l-100 0 l0 200 ZM0 -100 l0 100 l200 0 l0 -100 l-200 0 Z" /><glyph glyph-name="uni666E" unicode="&#x666e;" d="M600 600 l0 -100 l100 0 l0 -100 l200 0 l0 -100 l-100 0 l0 -400 l-700 0 l0 400 l-100 0 l0 100 l200 0 l0 100 l100 0 l0 100 l-100 0 l0 -100 l-100 0 l0 100 l-100 0 l0 100 l200 0 l0 100 l100 0 l0 -100 l300 0 l0 100 l100 0 l0 -100 l200 0 l0 -100 l-100 0 l0 -100 l-100 0 l0 100 l-100 0 ZM500 600 l-100 0 l0 -200 l100 0 l0 200 ZM700 200 l0 100 l-500 0 l0 -100 l500 0 ZM700 0 l0 100 l-500 0 l0 -100 l500 0 Z" /><glyph glyph-name="uni66F4" unicode="&#x66f4;" d="M900 700 l-200 0 l0 -100 l-200 0 l0 -100 l200 0 l0 100 l100 0 l0 -400 l-300 0 l0 -100 l-100 0 l0 100 l-100 0 l0 -100 l-100 0 l0 100 l-200 0 l0 100 l100 0 l0 300 l100 0 l0 -100 l200 0 l0 100 l-200 0 l0 100 l-200 0 l0 100 l900 0 l0 -100 ZM200 300 l200 0 l0 100 l-200 0 l0 -100 ZM700 400 l-200 0 l0 -100 l200 0 l0 100 ZM400 0 l-100 0 l0 100 l100 0 l0 -100 ZM0 0 l300 0 l0 -100 l-300 0 l0 100 ZM400 -100 l0 100 l500 0 l0 -100 l-500 0 Z" /><glyph glyph-name="uni6708" unicode="&#x6708;" d="M800 800 l0 -900 l-200 0 l0 100 l100 0 l0 200 l-400 0 l0 -200 l-100 0 l0 800 l600 0 ZM700 600 l0 100 l-400 0 l0 -100 l400 0 ZM700 300 l0 200 l-400 0 l0 -200 l400 0 ZM200 -100 l-100 0 l0 100 l100 0 l0 -100 Z" /><glyph glyph-name="uni6709" unicode="&#x6709;" d="M900 700 l0 -100 l-600 0 l0 -100 l500 0 l0 -600 l-100 0 l0 100 l-400 0 l0 -100 l-100 0 l0 400 l-100 0 l0 100 l100 0 l0 200 l-200 0 l0 100 l300 0 l0 100 l100 0 l0 -100 l500 0 ZM300 400 l0 -100 l400 0 l0 100 l-400 0 ZM100 200 l-100 0 l0 100 l100 0 l0 -100 ZM700 100 l0 100 l-400 0 l0 -100 l400 0 Z" /><glyph glyph-name="uni670D" unicode="&#x670d;" d="M100 800 l300 0 l0 -900 l-200 0 l0 100 l100 0 l0 200 l-100 0 l0 -100 l-100 0 l0 700 ZM900 800 l0 -200 l-100 0 l0 100 l-200 0 l0 -200 l100 0 l0 100 l100 0 l0 -100 l100 0 l0 -300 l-100 0 l0 200 l-200 0 l0 -100 l100 0 l0 -100 l-100 0 l0 -100 l100 0 l0 -100 l-100 0 l0 -100 l-100 0 l0 900 l400 0 ZM200 600 l100 0 l0 100 l-100 0 l0 -100 ZM300 300 l0 200 l-100 0 l0 -200 l100 0 ZM800 100 l-100 0 l0 100 l100 0 l0 -100 ZM0 -100 l0 200 l100 0 l0 -200 l-100 0 ZM900 -100 l-100 0 l0 200 l100 0 l0 -200 Z" /><glyph glyph-name="uni672C" unicode="&#x672c;" d="M600 500 l0 -100 l-100 0 l0 -200 l200 0 l0 -100 l-200 0 l0 -200 l-100 0 l0 200 l-200 0 l0 100 l200 0 l0 200 l-100 0 l0 100 l-300 0 l0 100 l400 0 l0 200 l100 0 l0 -200 l400 0 l0 -100 l-300 0 ZM200 400 l100 0 l0 -100 l-100 0 l0 100 ZM700 400 l0 -100 l-100 0 l0 100 l100 0 ZM100 200 l0 100 l100 0 l0 -100 l-100 0 ZM800 300 l0 -100 l-100 0 l0 100 l100 0 ZM100 100 l-100 0 l0 100 l100 0 l0 -100 ZM900 200 l0 -100 l-100 0 l0 100 l100 0 Z" /><glyph glyph-name="uni6765" unicode="&#x6765;" d="M600 400 l0 100 l100 0 l0 -100 l200 0 l0 -100 l-300 0 l0 -100 l-100 0 l0 -300 l-100 0 l0 300 l-100 0 l0 100 l-300 0 l0 100 l200 0 l0 100 l100 0 l0 -100 l100 0 l0 200 l-200 0 l0 -100 l-100 0 l0 100 l-100 0 l0 100 l400 0 l0 100 l100 0 l0 -100 l400 0 l0 -100 l-100 0 l0 -100 l-100 0 l0 100 l-200 0 l0 -200 l100 0 ZM300 100 l-100 0 l0 100 l100 0 l0 -100 ZM700 200 l0 -100 l-100 0 l0 100 l100 0 ZM0 0 l0 100 l200 0 l0 -100 l-200 0 ZM900 0 l-200 0 l0 100 l200 0 l0 -100 Z" /><glyph glyph-name="uni679C" unicode="&#x679c;" d="M900 100 l-200 0 l0 -100 l-100 0 l0 100 l-100 0 l0 -200 l-100 0 l0 200 l-100 0 l0 -100 l-100 0 l0 100 l-200 0 l0 100 l400 0 l0 100 l-300 0 l0 500 l700 0 l0 -500 l-300 0 l0 -100 l400 0 l0 -100 ZM200 700 l0 -100 l200 0 l0 100 l-200 0 ZM700 700 l-200 0 l0 -100 l200 0 l0 100 ZM200 400 l200 0 l0 100 l-200 0 l0 -100 ZM700 400 l0 100 l-200 0 l0 -100 l200 0 ZM0 -100 l0 100 l200 0 l0 -100 l-200 0 ZM900 -100 l-200 0 l0 100 l200 0 l0 -100 Z" /><glyph glyph-name="uni683C" unicode="&#x683c;" d="M700 400 l200 0 l0 -100 l-100 0 l0 -400 l-400 0 l0 400 l-100 0 l0 -400 l-100 0 l0 300 l-100 0 l0 200 l100 0 l0 100 l-200 0 l0 100 l200 0 l0 200 l100 0 l0 -200 l200 0 l0 -100 l-200 0 l0 -100 l200 0 l0 -100 l200 0 l0 100 ZM700 500 l0 100 l-200 0 l0 200 l100 0 l0 -100 l200 0 l0 -200 l-100 0 ZM500 400 l0 100 l200 0 l0 -100 l-200 0 ZM0 0 l0 200 l100 0 l0 -200 l-100 0 ZM700 0 l0 200 l-200 0 l0 -200 l200 0 Z" /><glyph glyph-name="uni6843" unicode="&#x6843;" d="M200 500 l0 -100 l100 0 l0 -100 l-100 0 l0 -400 l-100 0 l0 200 l-100 0 l0 300 l100 0 l0 100 l-100 0 l0 100 l100 0 l0 200 l100 0 l0 -200 l100 0 l0 -100 l-100 0 ZM300 700 l100 0 l0 100 l100 0 l0 -800 l-100 0 l0 200 l-100 0 l0 100 l100 0 l0 300 l-100 0 l0 100 ZM800 600 l0 -100 l-100 0 l0 -100 l100 0 l0 -100 l-100 0 l0 -300 l100 0 l0 100 l100 0 l0 -200 l-300 0 l0 900 l100 0 l0 -200 l100 0 ZM800 700 l100 0 l0 -100 l-100 0 l0 100 ZM900 300 l0 -100 l-100 0 l0 100 l100 0 ZM400 -100 l-100 0 l0 100 l100 0 l0 -100 Z" /><glyph glyph-name="uni6B22" unicode="&#x6b22;" d="M900 700 l0 -300 l-100 0 l0 200 l-300 0 l0 200 l100 0 l0 -100 l300 0 ZM400 700 l0 -100 l100 0 l0 -100 l-100 0 l0 -100 l-100 0 l0 200 l-300 0 l0 100 l400 0 ZM100 400 l0 100 l100 0 l0 -100 l-100 0 ZM700 500 l0 -300 l-100 0 l0 300 l100 0 ZM200 200 l0 200 l100 0 l0 -200 l-100 0 ZM200 100 l-100 0 l0 100 l100 0 l0 -100 ZM400 200 l0 -100 l-100 0 l0 100 l100 0 ZM500 0 l0 200 l100 0 l0 -200 l-100 0 ZM700 200 l100 0 l0 -200 l-100 0 l0 200 ZM100 0 l-100 0 l0 100 l100 0 l0 -100 ZM500 -100 l-100 0 l0 100 l100 0 l0 -100 ZM900 -100 l-100 0 l0 100 l100 0 l0 -100 Z" /><glyph glyph-name="uni6B27" unicode="&#x6b27;" d="M100 200 l100 0 l0 -100 l-100 0 l0 -100 l300 0 l0 -100 l-400 0 l0 900 l500 0 l0 -100 l-400 0 l0 -500 ZM700 700 l200 0 l0 -200 l-100 0 l0 100 l-100 0 l0 -100 l-100 0 l0 300 l100 0 l0 -100 ZM200 500 l0 100 l100 0 l0 -100 l-100 0 ZM400 500 l0 100 l100 0 l0 -100 l-100 0 ZM300 300 l0 200 l100 0 l0 -200 l-100 0 ZM600 400 l-100 0 l0 100 l100 0 l0 -100 ZM800 400 l0 -300 l-100 0 l0 300 l100 0 ZM300 200 l-100 0 l0 100 l100 0 l0 -100 ZM500 100 l-100 0 l0 200 l100 0 l0 -200 ZM700 0 l-100 0 l0 100 l100 0 l0 -100 ZM800 -100 l0 200 l100 0 l0 -200 l-100 0 ZM600 -100 l-100 0 l0 100 l100 0 l0 -100 Z" /><glyph glyph-name="uni6B3E" unicode="&#x6b3e;" d="M300 700 l200 0 l0 -100 l-100 0 l0 -200 l-300 0 l0 200 l-100 0 l0 100 l200 0 l0 100 l100 0 l0 -100 ZM700 700 l200 0 l0 -200 l-100 0 l0 100 l-200 0 l0 200 l100 0 l0 -100 ZM600 500 l-100 0 l0 100 l100 0 l0 -100 ZM700 400 l100 0 l0 -200 l-100 0 l0 200 ZM500 300 l0 -100 l-200 0 l0 -300 l-200 0 l0 100 l100 0 l0 200 l-200 0 l0 100 l500 0 ZM600 0 l0 200 l100 0 l0 -200 l-100 0 ZM800 200 l100 0 l0 -300 l-100 0 l0 300 ZM0 0 l0 100 l100 0 l0 -100 l-100 0 ZM400 0 l0 100 l100 0 l0 -100 l-100 0 ZM600 -100 l-100 0 l0 100 l100 0 l0 -100 Z" /><glyph glyph-name="uni6BB5" unicode="&#x6bb5;" d="M400 800 l0 -100 l-200 0 l0 100 l200 0 ZM700 500 l0 200 l-100 0 l0 -200 l-100 0 l0 300 l300 0 l0 -200 l100 0 l0 -100 l-200 0 ZM200 500 l0 -100 l200 0 l0 -100 l-200 0 l0 -100 l200 0 l0 -100 l-200 0 l0 -200 l-100 0 l0 200 l-100 0 l0 100 l100 0 l0 500 l100 0 l0 -100 l200 0 l0 -100 l-200 0 ZM500 400 l-100 0 l0 100 l100 0 l0 -100 ZM700 300 l-200 0 l0 100 l300 0 l0 -300 l-100 0 l0 200 ZM500 100 l0 100 l100 0 l0 -100 l-100 0 ZM700 0 l-100 0 l0 100 l100 0 l0 -100 ZM400 -100 l0 100 l200 0 l0 -100 l-200 0 ZM900 -100 l-200 0 l0 100 l200 0 l0 -100 Z" /><glyph glyph-name="uni6BCF" unicode="&#x6bcf;" d="M200 600 l0 200 l100 0 l0 -100 l600 0 l0 -100 l-700 0 ZM100 500 l0 100 l100 0 l0 -100 l-100 0 ZM100 400 l-100 0 l0 100 l100 0 l0 -100 ZM200 300 l0 200 l600 0 l0 -200 l100 0 l0 -100 l-100 0 l0 -100 l100 0 l0 -100 l-100 0 l0 -100 l-100 0 l0 100 l-600 0 l0 200 l-100 0 l0 100 l200 0 ZM400 300 l0 100 l-100 0 l0 -100 l100 0 ZM700 400 l-200 0 l0 -100 l200 0 l0 100 ZM500 100 l0 100 l-300 0 l0 -100 l300 0 ZM600 100 l100 0 l0 100 l-100 0 l0 -100 Z" /><glyph glyph-name="uni6C42" unicode="&#x6c42;" d="M500 500 l0 -200 l100 0 l0 -100 l-100 0 l0 -300 l-200 0 l0 100 l100 0 l0 200 l-100 0 l0 100 l100 0 l0 200 l-400 0 l0 100 l400 0 l0 200 l100 0 l0 -200 l200 0 l0 100 l100 0 l0 -100 l100 0 l0 -100 l-400 0 ZM600 700 l0 100 l100 0 l0 -100 l-100 0 ZM100 400 l100 0 l0 -100 l-100 0 l0 100 ZM800 400 l0 -100 l-200 0 l0 100 l200 0 ZM300 100 l-100 0 l0 100 l100 0 l0 -100 ZM700 200 l0 -100 l-100 0 l0 100 l100 0 ZM0 0 l0 100 l200 0 l0 -100 l-200 0 ZM900 0 l-200 0 l0 100 l200 0 l0 -100 Z" /><glyph glyph-name="uni6CBB" unicode="&#x6cbb;" d="M0 700 l0 100 l100 0 l0 -100 l-100 0 ZM500 800 l100 0 l0 -100 l-100 0 l0 100 ZM200 600 l-100 0 l0 100 l100 0 l0 -100 ZM400 700 l100 0 l0 -100 l-100 0 l0 100 ZM100 500 l-100 0 l0 100 l100 0 l0 -100 ZM400 500 l300 0 l0 -100 l-400 0 l0 200 l100 0 l0 -100 ZM700 500 l0 100 l100 0 l0 -100 l-100 0 ZM200 500 l0 -100 l-100 0 l0 100 l100 0 ZM800 400 l0 100 l100 0 l0 -100 l-100 0 ZM200 200 l-100 0 l0 100 l100 0 l0 -100 ZM800 300 l0 -400 l-500 0 l0 400 l500 0 ZM0 200 l100 0 l0 -300 l-100 0 l0 300 ZM700 0 l0 200 l-300 0 l0 -200 l300 0 Z" /><glyph glyph-name="uni6CE8" unicode="&#x6ce8;" d="M0 700 l0 100 l100 0 l0 -100 l-100 0 ZM500 700 l0 100 l100 0 l0 -100 l-100 0 ZM100 700 l100 0 l0 -100 l-100 0 l0 100 ZM700 500 l0 -200 l100 0 l0 -100 l-100 0 l0 -200 l200 0 l0 -100 l-600 0 l0 100 l300 0 l0 200 l-200 0 l0 100 l200 0 l0 200 l-300 0 l0 100 l300 0 l0 100 l100 0 l0 -100 l200 0 l0 -100 l-200 0 ZM0 600 l100 0 l0 -100 l-100 0 l0 100 ZM200 500 l0 -100 l-100 0 l0 100 l100 0 ZM200 300 l100 0 l0 -100 l-100 0 l0 100 ZM200 100 l-100 0 l0 100 l100 0 l0 -100 ZM0 -100 l0 200 l100 0 l0 -200 l-100 0 Z" /><glyph glyph-name="uni6E2F" unicode="&#x6e2f;" d="M0 700 l0 100 l100 0 l0 -100 l-100 0 ZM900 700 l0 -100 l-100 0 l0 -100 l100 0 l0 -100 l-100 0 l0 -100 l100 0 l0 -100 l-100 0 l0 -100 l-200 0 l0 100 l100 0 l0 100 l-200 0 l0 -300 l300 0 l0 100 l100 0 l0 -200 l-500 0 l0 300 l-100 0 l0 100 l100 0 l0 100 l-100 0 l0 100 l100 0 l0 100 l-100 0 l0 100 l100 0 l0 100 l100 0 l0 -100 l200 0 l0 100 l100 0 l0 -100 l100 0 ZM100 700 l100 0 l0 -100 l-100 0 l0 100 ZM0 600 l100 0 l0 -100 l-100 0 l0 100 ZM700 500 l0 100 l-200 0 l0 -100 l200 0 ZM200 500 l0 -100 l-100 0 l0 100 l100 0 ZM100 200 l0 100 l100 0 l0 -100 l-100 0 ZM0 200 l100 0 l0 -300 l-100 0 l0 300 ZM300 100 l-100 0 l0 100 l100 0 l0 -100 Z" /><glyph glyph-name="uni70B9" unicode="&#x70b9;" d="M900 700 l0 -100 l-500 0 l0 -100 l400 0 l0 -300 l-700 0 l0 300 l200 0 l0 300 l100 0 l0 -100 l500 0 ZM200 400 l0 -100 l500 0 l0 100 l-500 0 ZM200 0 l-100 0 l0 100 l100 0 l0 -100 ZM300 0 l0 100 l100 0 l0 -100 l-100 0 ZM500 0 l0 100 l100 0 l0 -100 l-100 0 ZM700 0 l0 100 l100 0 l0 -100 l-100 0 ZM100 -100 l-100 0 l0 100 l100 0 l0 -100 ZM500 -100 l-100 0 l0 100 l100 0 l0 -100 ZM700 -100 l-100 0 l0 100 l100 0 l0 -100 ZM900 -100 l-100 0 l0 100 l100 0 l0 -100 Z" /><glyph glyph-name="uni7279" unicode="&#x7279;" d="M300 500 l0 -100 l100 0 l0 -100 l-100 0 l0 -400 l-100 0 l0 300 l-100 0 l0 100 l100 0 l0 200 l-100 0 l0 200 l100 0 l0 100 l100 0 l0 -200 l100 0 l0 -100 l-100 0 ZM900 600 l-200 0 l0 -100 l200 0 l0 -100 l-100 0 l0 -100 l100 0 l0 -100 l-100 0 l0 -300 l-200 0 l0 100 l100 0 l0 200 l-100 0 l0 -100 l-100 0 l0 100 l-100 0 l0 100 l300 0 l0 100 l-300 0 l0 100 l200 0 l0 100 l-200 0 l0 100 l200 0 l0 100 l100 0 l0 -100 l200 0 l0 -100 ZM100 400 l-100 0 l0 100 l100 0 l0 -100 ZM100 100 l-100 0 l0 100 l100 0 l0 -100 Z" /><glyph glyph-name="uni73B0" unicode="&#x73b0;" d="M900 800 l0 -500 l-100 0 l0 400 l-300 0 l0 -400 l-200 0 l0 -100 l100 0 l0 -100 l-200 0 l0 200 l-200 0 l0 100 l200 0 l0 200 l-200 0 l0 100 l400 0 l0 100 l500 0 ZM400 400 l0 200 l-100 0 l0 -200 l100 0 ZM700 300 l-100 0 l0 300 l100 0 l0 -300 ZM600 100 l-100 0 l0 200 l100 0 l0 -100 l100 0 l0 -200 l100 0 l0 100 l100 0 l0 -200 l-300 0 l0 200 ZM0 0 l0 100 l200 0 l0 -100 l-200 0 ZM400 -100 l0 200 l100 0 l0 -200 l-100 0 Z" /><glyph glyph-name="uni7528" unicode="&#x7528;" d="M800 800 l0 -900 l-200 0 l0 100 l100 0 l0 200 l-200 0 l0 -300 l-100 0 l0 300 l-200 0 l0 -200 l-100 0 l0 800 l700 0 ZM200 700 l0 -100 l200 0 l0 100 l-200 0 ZM700 600 l0 100 l-200 0 l0 -100 l200 0 ZM200 300 l200 0 l0 200 l-200 0 l0 -200 ZM700 300 l0 200 l-200 0 l0 -200 l200 0 ZM100 -100 l-100 0 l0 100 l100 0 l0 -100 Z" /><glyph glyph-name="uni7531" unicode="&#x7531;" d="M900 600 l0 -700 l-900 0 l0 700 l400 0 l0 200 l100 0 l0 -200 l400 0 ZM100 500 l0 -200 l300 0 l0 200 l-300 0 ZM800 300 l0 200 l-300 0 l0 -200 l300 0 ZM400 0 l0 200 l-300 0 l0 -200 l300 0 ZM800 0 l0 200 l-300 0 l0 -200 l300 0 Z" /><glyph glyph-name="uni7591" unicode="&#x7591;" d="M500 300 l0 -300 l-100 0 l0 100 l-100 0 l0 -100 l-100 0 l0 100 l-100 0 l0 100 l100 0 l0 100 l-100 0 l0 500 l100 0 l0 -100 l100 0 l0 -100 l100 0 l0 -100 l-200 0 l0 -100 l200 0 l0 -100 l-100 0 l0 -100 l100 0 l0 100 l100 0 ZM300 800 l100 0 l0 -100 l-100 0 l0 100 ZM800 800 l0 -200 l-100 0 l0 100 l-200 0 l0 100 l300 0 ZM700 500 l200 0 l0 -200 l-100 0 l0 100 l-100 0 l0 -200 l200 0 l0 -100 l-200 0 l0 -100 l200 0 l0 -100 l-400 0 l0 100 l100 0 l0 400 l-100 0 l0 100 l100 0 l0 100 l100 0 l0 -100 ZM0 200 l0 100 l100 0 l0 -100 l-100 0 ZM0 -100 l0 100 l200 0 l0 -100 l-200 0 ZM400 -100 l-100 0 l0 100 l100 0 l0 -100 Z" /><glyph glyph-name="uni7684" unicode="&#x7684;" d="M200 800 l100 0 l0 -100 l-100 0 l0 100 ZM900 600 l0 -600 l-100 0 l0 500 l-300 0 l0 300 l100 0 l0 -200 l300 0 ZM400 600 l0 -100 l100 0 l0 -100 l-100 0 l0 -500 l-400 0 l0 700 l100 0 l0 100 l100 0 l0 -100 l200 0 ZM300 300 l0 200 l-200 0 l0 -200 l200 0 ZM600 400 l0 -100 l-100 0 l0 100 l100 0 ZM700 300 l0 -100 l-100 0 l0 100 l100 0 ZM300 0 l0 200 l-200 0 l0 -200 l200 0 ZM600 -100 l0 100 l200 0 l0 -100 l-200 0 Z" /><glyph glyph-name="uni76F8" unicode="&#x76f8;" d="M900 800 l0 -900 l-500 0 l0 400 l-100 0 l0 -400 l-100 0 l0 200 l-100 0 l0 300 l100 0 l0 100 l-200 0 l0 100 l200 0 l0 200 l100 0 l0 -200 l100 0 l0 200 l500 0 ZM800 600 l0 100 l-300 0 l0 -100 l300 0 ZM300 500 l0 -100 l100 0 l0 100 l-100 0 ZM800 300 l0 200 l-300 0 l0 -200 l300 0 ZM800 0 l0 200 l-300 0 l0 -200 l300 0 ZM100 0 l-100 0 l0 100 l100 0 l0 -100 Z" /><glyph glyph-name="uni7801" unicode="&#x7801;" d="M800 400 l100 0 l0 -400 l-100 0 l0 300 l-300 0 l0 300 l100 0 l0 -200 l100 0 l0 300 l-200 0 l0 100 l300 0 l0 -400 ZM700 200 l0 -100 l-300 0 l0 -100 l-300 0 l0 200 l-100 0 l0 100 l100 0 l0 100 l100 0 l0 -300 l100 0 l0 300 l-100 0 l0 200 l-200 0 l0 100 l400 0 l0 -100 l-100 0 l0 -100 l100 0 l0 -300 l300 0 ZM600 -100 l0 100 l200 0 l0 -100 l-200 0 Z" /><glyph glyph-name="uni7814" unicode="&#x7814;" d="M800 700 l0 -300 l100 0 l0 -100 l-100 0 l0 -400 l-100 0 l0 400 l-100 0 l0 -300 l-100 0 l0 300 l-100 0 l0 -300 l-300 0 l0 200 l-100 0 l0 100 l100 0 l0 100 l100 0 l0 -300 l100 0 l0 300 l-100 0 l0 200 l-200 0 l0 100 l400 0 l0 -100 l-100 0 l0 -100 l100 0 l0 -100 l100 0 l0 300 l-100 0 l0 100 l500 0 l0 -100 l-100 0 ZM600 400 l100 0 l0 300 l-100 0 l0 -300 ZM500 -100 l-100 0 l0 100 l100 0 l0 -100 Z" /><glyph glyph-name="uni79C1" unicode="&#x79c1;" d="M300 800 l100 0 l0 -100 l-100 0 l0 100 ZM700 400 l-100 0 l0 400 l100 0 l0 -400 ZM300 300 l100 0 l0 -100 l-100 0 l0 -300 l-100 0 l0 300 l-100 0 l0 200 l-100 0 l0 100 l200 0 l0 100 l-100 0 l0 100 l200 0 l0 -200 l100 0 l0 -100 l-100 0 l0 -100 ZM600 100 l-100 0 l0 300 l100 0 l0 -300 ZM0 0 l0 200 l100 0 l0 -200 l-100 0 ZM800 200 l100 0 l0 -300 l-500 0 l0 200 l100 0 l0 -100 l300 0 l0 200 Z" /><glyph glyph-name="uni79D1" unicode="&#x79d1;" d="M300 800 l100 0 l0 -100 l-100 0 l0 100 ZM800 300 l100 0 l0 -100 l-100 0 l0 -300 l-100 0 l0 200 l-300 0 l0 100 l300 0 l0 300 l-100 0 l0 100 l100 0 l0 200 l100 0 l0 -500 ZM300 400 l0 -100 l100 0 l0 -100 l-100 0 l0 -300 l-100 0 l0 300 l-100 0 l0 200 l-100 0 l0 100 l200 0 l0 100 l-100 0 l0 100 l200 0 l0 -200 l200 0 l0 -100 l-200 0 ZM500 600 l0 100 l100 0 l0 -100 l-100 0 ZM600 400 l0 -100 l-100 0 l0 100 l100 0 ZM0 0 l0 200 l100 0 l0 -200 l-100 0 Z" /><glyph glyph-name="uni7ACB" unicode="&#x7acb;" d="M300 700 l0 100 l100 0 l0 -100 l-100 0 ZM100 500 l0 100 l300 0 l0 100 l100 0 l0 -100 l300 0 l0 -100 l-700 0 ZM700 100 l-100 0 l0 300 l100 0 l0 -300 ZM100 300 l100 0 l0 -100 l-100 0 l0 100 ZM300 200 l0 -100 l-100 0 l0 100 l100 0 ZM900 0 l0 -100 l-900 0 l0 100 l500 0 l0 100 l100 0 l0 -100 l300 0 Z" /><glyph glyph-name="uni7B2C" unicode="&#x7b2c;" d="M900 600 l-200 0 l0 -100 l100 0 l0 -200 l-100 0 l0 100 l-200 0 l0 -100 l200 0 l0 -100 l200 0 l0 -200 l-100 0 l0 100 l-300 0 l0 -200 l-100 0 l0 200 l-100 0 l0 -100 l-100 0 l0 100 l-200 0 l0 100 l100 0 l0 100 l300 0 l0 100 l-300 0 l0 100 l100 0 l0 100 l-100 0 l0 200 l100 0 l0 -100 l200 0 l0 -100 l-100 0 l0 -100 l100 0 l0 100 l100 0 l0 -100 l100 0 l0 100 l-100 0 l0 200 l100 0 l0 -100 l300 0 l0 -100 ZM0 500 l0 100 l100 0 l0 -100 l-100 0 ZM0 -100 l0 100 l200 0 l0 -100 l-200 0 ZM600 -100 l0 100 l200 0 l0 -100 l-200 0 Z" /><glyph glyph-name="uni7B49" unicode="&#x7b49;" d="M900 700 l-200 0 l0 -100 l100 0 l0 -100 l-300 0 l0 -100 l400 0 l0 -100 l-200 0 l0 -100 l100 0 l0 -100 l-100 0 l0 -200 l-200 0 l0 100 l100 0 l0 100 l-300 0 l0 -100 l-100 0 l0 100 l-100 0 l0 100 l500 0 l0 100 l-600 0 l0 100 l400 0 l0 100 l-300 0 l0 100 l100 0 l0 100 l-100 0 l0 100 l300 0 l0 -100 l-100 0 l0 -100 l100 0 l0 100 l100 0 l0 -100 l100 0 l0 100 l-100 0 l0 100 l400 0 l0 -100 ZM0 600 l0 100 l100 0 l0 -100 l-100 0 Z" /><glyph glyph-name="uni7BB1" unicode="&#x7bb1;" d="M900 700 l0 -100 l-100 0 l0 -100 l100 0 l0 -600 l-500 0 l0 100 l-100 0 l0 -100 l-100 0 l0 200 l-100 0 l0 200 l-100 0 l0 100 l200 0 l0 100 l100 0 l0 -100 l100 0 l0 100 l100 0 l0 100 l100 0 l0 -100 l100 0 l0 100 l-100 0 l0 200 l100 0 l0 -100 l200 0 ZM500 600 l-100 0 l0 -100 l-100 0 l0 100 l-200 0 l0 200 l100 0 l0 -100 l300 0 l0 -100 ZM100 500 l-100 0 l0 100 l100 0 l0 -100 ZM800 300 l0 100 l-300 0 l0 -100 l300 0 ZM300 100 l100 0 l0 200 l-100 0 l0 -200 ZM0 -100 l0 200 l100 0 l0 -200 l-100 0 ZM800 0 l0 100 l-300 0 l0 -100 l300 0 Z" /><glyph glyph-name="uni7C7B" unicode="&#x7c7b;" d="M900 500 l-200 0 l0 -100 l-100 0 l0 100 l-100 0 l0 -200 l200 0 l0 100 l100 0 l0 -100 l100 0 l0 -100 l-300 0 l0 -100 l-100 0 l0 100 l-100 0 l0 -100 l-100 0 l0 100 l-300 0 l0 100 l100 0 l0 100 l100 0 l0 -100 l200 0 l0 200 l-100 0 l0 -100 l-100 0 l0 100 l-200 0 l0 100 l400 0 l0 200 l100 0 l0 -100 l100 0 l0 -100 l300 0 l0 -100 ZM200 800 l100 0 l0 -100 l-100 0 l0 100 ZM600 800 l100 0 l0 -100 l-100 0 l0 100 ZM300 0 l-100 0 l0 100 l100 0 l0 -100 ZM700 100 l0 -100 l-100 0 l0 100 l100 0 ZM0 -100 l0 100 l200 0 l0 -100 l-200 0 ZM900 -100 l-200 0 l0 100 l200 0 l0 -100 Z" /><glyph glyph-name="uni7CFB" unicode="&#x7cfb;" d="M400 700 l0 -100 l-100 0 l0 100 l-200 0 l0 100 l700 0 l0 -100 l-400 0 ZM700 300 l0 -100 l-200 0 l0 -300 l-200 0 l0 100 l100 0 l0 200 l-400 0 l0 100 l200 0 l0 100 l-100 0 l0 100 l100 0 l0 100 l100 0 l0 -100 l300 0 l0 -100 l-300 0 l0 -100 l400 0 ZM600 600 l100 0 l0 -100 l-100 0 l0 100 ZM700 300 l0 100 l100 0 l0 -100 l-100 0 ZM800 200 l0 100 l100 0 l0 -100 l-100 0 ZM200 0 l-100 0 l0 100 l100 0 l0 -100 ZM700 0 l0 100 l100 0 l0 -100 l-100 0 ZM100 -100 l-100 0 l0 100 l100 0 l0 -100 ZM900 -100 l-100 0 l0 100 l100 0 l0 -100 Z" /><glyph glyph-name="uni7EC6" unicode="&#x7ec6;" d="M200 800 l0 -200 l-100 0 l0 200 l100 0 ZM900 800 l0 -900 l-600 0 l0 100 l-100 0 l0 100 l100 0 l0 100 l-100 0 l0 100 l100 0 l0 500 l600 0 ZM400 400 l200 0 l0 300 l-200 0 l0 -300 ZM800 700 l-100 0 l0 -300 l100 0 l0 300 ZM200 500 l0 -200 l-100 0 l0 100 l-100 0 l0 200 l100 0 l0 -100 l100 0 ZM100 300 l0 -100 l100 0 l0 -100 l-200 0 l0 200 l100 0 ZM400 0 l200 0 l0 300 l-200 0 l0 -300 ZM800 300 l-100 0 l0 -300 l100 0 l0 300 ZM0 -100 l0 100 l200 0 l0 -100 l-200 0 Z" /><glyph glyph-name="uni7ED9" unicode="&#x7ed9;" d="M200 800 l100 0 l0 -100 l-100 0 l0 100 ZM600 800 l100 0 l0 -100 l-100 0 l0 100 ZM100 700 l100 0 l0 -100 l-100 0 l0 100 ZM500 700 l100 0 l0 -100 l-100 0 l0 100 ZM800 700 l0 -100 l-100 0 l0 100 l100 0 ZM200 500 l0 -200 l-100 0 l0 100 l-100 0 l0 200 l100 0 l0 -100 l100 0 ZM400 500 l0 100 l100 0 l0 -100 l-100 0 ZM800 500 l0 100 l100 0 l0 -100 l-100 0 ZM400 400 l-100 0 l0 100 l100 0 l0 -100 ZM500 500 l300 0 l0 -100 l-300 0 l0 100 ZM0 300 l100 0 l0 -100 l100 0 l0 -100 l-200 0 l0 200 ZM300 200 l-100 0 l0 100 l100 0 l0 -100 ZM900 300 l0 -400 l-500 0 l0 400 l500 0 ZM800 0 l0 200 l-300 0 l0 -200 l300 0 ZM300 100 l0 -100 l-100 0 l0 100 l100 0 ZM0 -100 l0 100 l200 0 l0 -100 l-200 0 Z" /><glyph glyph-name="uni7EDC" unicode="&#x7edc;" d="M200 800 l100 0 l0 -100 l-100 0 l0 100 ZM700 500 l0 100 l-200 0 l0 200 l100 0 l0 -100 l200 0 l0 -200 l-100 0 ZM100 700 l100 0 l0 -100 l-100 0 l0 100 ZM200 500 l0 -200 l-100 0 l0 100 l-100 0 l0 200 l100 0 l0 -100 l100 0 ZM400 500 l0 100 l100 0 l0 -100 l-100 0 ZM700 500 l0 -100 l-200 0 l0 100 l200 0 ZM700 400 l200 0 l0 -100 l-100 0 l0 -400 l-400 0 l0 400 l-100 0 l0 100 l200 0 l0 -100 l200 0 l0 100 ZM0 300 l100 0 l0 -100 l100 0 l0 -100 l-200 0 l0 200 ZM300 200 l-100 0 l0 100 l100 0 l0 -100 ZM700 0 l0 200 l-200 0 l0 -200 l200 0 ZM300 100 l0 -100 l-100 0 l0 100 l100 0 ZM0 -100 l0 100 l200 0 l0 -100 l-200 0 Z" /><glyph glyph-name="uni7EDF" unicode="&#x7edf;" d="M200 700 l0 100 l100 0 l0 -100 l-100 0 ZM900 700 l0 -100 l-100 0 l0 -100 l-100 0 l0 100 l-200 0 l0 -100 l200 0 l0 -100 l-400 0 l0 100 l100 0 l0 100 l-100 0 l0 100 l200 0 l0 100 l100 0 l0 -100 l300 0 ZM200 600 l-100 0 l0 100 l100 0 l0 -100 ZM0 400 l0 200 l100 0 l0 -100 l100 0 l0 -200 l-100 0 l0 100 l-100 0 ZM900 500 l0 -100 l-100 0 l0 100 l100 0 ZM0 300 l100 0 l0 -100 l100 0 l0 -100 l-200 0 l0 200 ZM300 300 l0 -100 l-100 0 l0 100 l100 0 ZM500 0 l-100 0 l0 300 l100 0 l0 -300 ZM700 0 l100 0 l0 100 l100 0 l0 -200 l-300 0 l0 400 l100 0 l0 -300 ZM300 100 l0 -100 l-100 0 l0 100 l100 0 ZM0 -100 l0 100 l200 0 l0 -100 l-200 0 ZM400 0 l0 -100 l-100 0 l0 100 l100 0 Z" /><glyph glyph-name="uni7F00" unicode="&#x7f00;" d="M200 800 l0 -200 l-100 0 l0 200 l100 0 ZM900 800 l0 -200 l-100 0 l0 100 l-100 0 l0 -100 l-100 0 l0 100 l-100 0 l0 -100 l-100 0 l0 100 l-100 0 l0 100 l600 0 ZM200 500 l0 -200 l-100 0 l0 100 l-100 0 l0 200 l100 0 l0 -100 l100 0 ZM500 500 l0 100 l100 0 l0 -100 l-100 0 ZM800 500 l-100 0 l0 100 l100 0 l0 -100 ZM300 400 l0 100 l200 0 l0 -100 l-200 0 ZM700 400 l-100 0 l0 100 l100 0 l0 -100 ZM900 500 l0 -100 l-100 0 l0 100 l100 0 ZM100 300 l0 -100 l100 0 l0 -100 l-200 0 l0 200 l100 0 ZM900 300 l0 -200 l-100 0 l0 100 l-100 0 l0 -100 l-100 0 l0 100 l-100 0 l0 -100 l-100 0 l0 100 l-100 0 l0 100 l600 0 ZM200 0 l0 100 l100 0 l0 -100 l-100 0 ZM500 0 l0 100 l100 0 l0 -100 l-100 0 ZM800 0 l-100 0 l0 100 l100 0 l0 -100 ZM0 -100 l0 100 l200 0 l0 -100 l-200 0 ZM300 -100 l0 100 l200 0 l0 -100 l-200 0 ZM700 -100 l-100 0 l0 100 l100 0 l0 -100 ZM900 0 l0 -100 l-100 0 l0 100 l100 0 Z" /><glyph glyph-name="uni7F51" unicode="&#x7f51;" d="M900 800 l0 -900 l-200 0 l0 100 l100 0 l0 100 l-100 0 l0 100 l100 0 l0 200 l-100 0 l0 200 l100 0 l0 100 l-700 0 l0 -200 l100 0 l0 -100 l-100 0 l0 -200 l100 0 l0 -100 l-100 0 l0 -200 l-100 0 l0 900 l900 0 ZM400 600 l0 -200 l-100 0 l0 200 l100 0 ZM500 400 l0 100 l100 0 l0 -100 l-100 0 ZM300 200 l-100 0 l0 200 l100 0 l0 -200 ZM600 400 l100 0 l0 -200 l-100 0 l0 200 ZM400 200 l0 -100 l-100 0 l0 100 l100 0 ZM600 100 l-100 0 l0 100 l100 0 l0 -100 Z" /><glyph glyph-name="uni7F6E" unicode="&#x7f6e;" d="M700 0 l200 0 l0 -100 l-900 0 l0 100 l200 0 l0 300 l-100 0 l0 100 l300 0 l0 100 l-300 0 l0 300 l700 0 l0 -300 l-300 0 l0 -100 l300 0 l0 -100 l-100 0 l0 -300 ZM200 700 l0 -100 l100 0 l0 100 l-100 0 ZM500 700 l-100 0 l0 -100 l100 0 l0 100 ZM700 600 l0 100 l-100 0 l0 -100 l100 0 ZM300 300 l0 -100 l300 0 l0 100 l-300 0 ZM600 0 l0 100 l-300 0 l0 -100 l300 0 Z" /><glyph glyph-name="uni7F72" unicode="&#x7f72;" d="M700 400 l0 100 l100 0 l0 -100 l100 0 l0 -100 l-100 0 l0 -400 l-600 0 l0 300 l-100 0 l0 100 l-100 0 l0 100 l400 0 l0 100 l-300 0 l0 300 l700 0 l0 -200 l-100 0 l0 100 l-100 0 l0 -100 l100 0 l0 -100 l-200 0 l0 -100 l200 0 ZM200 700 l0 -100 l100 0 l0 100 l-100 0 ZM500 700 l-100 0 l0 -100 l100 0 l0 100 ZM900 600 l0 -100 l-100 0 l0 100 l100 0 ZM700 200 l0 100 l-400 0 l0 -100 l400 0 ZM100 100 l-100 0 l0 100 l100 0 l0 -100 ZM700 0 l0 100 l-400 0 l0 -100 l400 0 Z" /><glyph glyph-name="uni7F8E" unicode="&#x7f8e;" d="M600 100 l0 -100 l-100 0 l0 100 l-100 0 l0 -100 l-100 0 l0 100 l-300 0 l0 100 l400 0 l0 100 l-300 0 l0 100 l100 0 l0 100 l200 0 l0 100 l-300 0 l0 100 l100 0 l0 100 l100 0 l0 -100 l300 0 l0 100 l100 0 l0 -100 l100 0 l0 -100 l-300 0 l0 -100 l200 0 l0 -100 l100 0 l0 -100 l-300 0 l0 -100 l400 0 l0 -100 l-300 0 ZM0 0 l300 0 l0 -100 l-300 0 l0 100 ZM600 -100 l0 100 l300 0 l0 -100 l-300 0 Z" /><glyph glyph-name="uni8005" unicode="&#x8005;" d="M700 500 l0 100 l100 0 l0 -100 l100 0 l0 -100 l-200 0 l0 -100 l-400 0 l0 100 l-300 0 l0 100 l400 0 l0 100 l-200 0 l0 100 l200 0 l0 100 l100 0 l0 -100 l200 0 l0 -100 l-200 0 l0 -100 l200 0 ZM800 700 l100 0 l0 -100 l-100 0 l0 100 ZM700 200 l0 100 l100 0 l0 -400 l-600 0 l0 300 l-200 0 l0 100 l300 0 l0 -100 l400 0 ZM700 0 l0 100 l-400 0 l0 -100 l400 0 Z" /><glyph glyph-name="uni8054" unicode="&#x8054;" d="M700 600 l0 100 l100 0 l0 -100 l100 0 l0 -100 l-200 0 l0 -100 l200 0 l0 -100 l-200 0 l0 -100 l-100 0 l0 100 l-200 0 l0 -300 l100 0 l0 -100 l-200 0 l0 200 l-100 0 l0 -100 l-200 0 l0 100 l100 0 l0 600 l-100 0 l0 100 l400 0 l0 -400 l200 0 l0 100 l-100 0 l0 100 l200 0 ZM500 800 l100 0 l0 -100 l-100 0 l0 100 ZM800 800 l100 0 l0 -100 l-100 0 l0 100 ZM300 700 l-100 0 l0 -100 l100 0 l0 100 ZM300 500 l-100 0 l0 -100 l100 0 l0 100 ZM200 200 l100 0 l0 100 l-100 0 l0 -100 ZM500 0 l0 200 l100 0 l0 -200 l-100 0 ZM800 0 l-100 0 l0 200 l100 0 l0 -200 ZM900 0 l0 -100 l-100 0 l0 100 l100 0 Z" /><glyph glyph-name="uni80B2" unicode="&#x80b2;" d="M900 700 l0 -100 l-200 0 l0 -100 l-100 0 l0 100 l-300 0 l0 -100 l300 0 l0 -100 l-300 0 l0 -100 l300 0 l0 100 l100 0 l0 -500 l-100 0 l0 100 l-300 0 l0 -100 l-100 0 l0 500 l-100 0 l0 100 l100 0 l0 100 l-200 0 l0 100 l400 0 l0 100 l100 0 l0 -100 l400 0 ZM800 500 l0 -100 l-100 0 l0 100 l100 0 ZM300 200 l0 -100 l300 0 l0 100 l-300 0 Z" /><glyph glyph-name="uni81EA" unicode="&#x81ea;" d="M800 700 l0 -800 l-700 0 l0 700 l100 0 l0 -100 l500 0 l0 100 l-500 0 l0 100 l100 0 l0 100 l100 0 l0 -100 l400 0 ZM700 300 l0 100 l-500 0 l0 -100 l500 0 ZM700 0 l0 200 l-500 0 l0 -200 l500 0 Z" /><glyph glyph-name="uni81F4" unicode="&#x81f4;" d="M300 700 l0 -100 l-100 0 l0 100 l-200 0 l0 100 l500 0 l0 -100 l-200 0 ZM700 600 l200 0 l0 -400 l-100 0 l0 300 l-200 0 l0 300 l100 0 l0 -200 ZM300 100 l200 0 l0 -100 l-300 0 l0 200 l-200 0 l0 100 l200 0 l0 100 l-200 0 l0 100 l100 0 l0 100 l100 0 l0 -100 l200 0 l0 -100 l-100 0 l0 -100 l200 0 l0 -100 l-200 0 l0 -100 ZM400 600 l100 0 l0 -100 l-100 0 l0 100 ZM600 500 l0 -100 l-100 0 l0 100 l100 0 ZM700 200 l-100 0 l0 200 l100 0 l0 -200 ZM700 0 l0 200 l100 0 l0 -200 l-100 0 ZM0 -100 l0 100 l200 0 l0 -100 l-200 0 ZM500 -100 l0 100 l200 0 l0 -100 l-200 0 ZM900 0 l0 -100 l-100 0 l0 100 l100 0 Z" /><glyph glyph-name="uni822C" unicode="&#x822c;" d="M400 500 l100 0 l0 -100 l-100 0 l0 -500 l-200 0 l0 100 l100 0 l0 100 l-100 0 l0 -100 l-100 0 l0 300 l-100 0 l0 100 l100 0 l0 200 l100 0 l0 -100 l100 0 l0 100 l-100 0 l0 200 l100 0 l0 -100 l100 0 l0 -200 ZM800 100 l-100 0 l0 200 l-200 0 l0 100 l200 0 l0 300 l-100 0 l0 -200 l-100 0 l0 300 l300 0 l0 -300 l100 0 l0 -100 l-100 0 l0 -300 ZM200 200 l100 0 l0 100 l-100 0 l0 -100 ZM500 100 l0 100 l100 0 l0 -100 l-100 0 ZM600 0 l0 100 l100 0 l0 -100 l-100 0 ZM100 -100 l-100 0 l0 100 l100 0 l0 -100 ZM600 -100 l-100 0 l0 100 l100 0 l0 -100 ZM900 -100 l-200 0 l0 100 l200 0 l0 -100 Z" /><glyph glyph-name="uni83B7" unicode="&#x83b7;" d="M900 700 l0 -100 l-300 0 l0 -100 l-100 0 l0 100 l-200 0 l0 -200 l-100 0 l0 200 l-200 0 l0 100 l200 0 l0 100 l100 0 l0 -100 l200 0 l0 100 l100 0 l0 -100 l300 0 ZM0 400 l0 100 l100 0 l0 -100 l-100 0 ZM600 300 l0 200 l100 0 l0 -200 l200 0 l0 -100 l-200 0 l0 -100 l-100 0 l0 100 l-200 0 l0 100 l200 0 ZM900 400 l-100 0 l0 100 l100 0 l0 -100 ZM200 300 l-100 0 l0 100 l100 0 l0 -100 ZM0 200 l0 100 l100 0 l0 -100 l-100 0 ZM100 100 l0 100 l100 0 l0 100 l100 0 l0 -400 l-200 0 l0 100 l100 0 l0 100 l-100 0 ZM0 0 l0 100 l100 0 l0 -100 l-100 0 ZM600 0 l-100 0 l0 100 l100 0 l0 -100 ZM800 100 l0 -100 l-100 0 l0 100 l100 0 ZM500 -100 l-100 0 l0 100 l100 0 l0 -100 ZM900 0 l0 -100 l-100 0 l0 100 l100 0 Z" /><glyph glyph-name="uni8425" unicode="&#x8425;" d="M900 600 l-200 0 l0 -100 l200 0 l0 -200 l-100 0 l0 100 l-100 0 l0 -200 l100 0 l0 -300 l-700 0 l0 300 l100 0 l0 200 l-100 0 l0 -100 l-100 0 l0 200 l200 0 l0 100 l-200 0 l0 100 l200 0 l0 100 l100 0 l0 -100 l300 0 l0 100 l100 0 l0 -100 l200 0 l0 -100 ZM600 500 l0 100 l-300 0 l0 -100 l300 0 ZM600 200 l0 100 l-300 0 l0 -100 l300 0 ZM700 0 l0 100 l-500 0 l0 -100 l500 0 Z" /><glyph glyph-name="uni86E4" unicode="&#x86e4;" d="M300 800 l0 -200 l100 0 l0 -300 l500 0 l0 -400 l-500 0 l0 100 l-200 0 l0 200 l-200 0 l0 400 l200 0 l0 200 l100 0 ZM500 800 l200 0 l0 -100 l-200 0 l0 100 ZM500 600 l-100 0 l0 100 l100 0 l0 -100 ZM700 600 l0 100 l100 0 l0 -100 l-100 0 ZM900 600 l0 -100 l-100 0 l0 100 l100 0 ZM100 300 l100 0 l0 200 l-100 0 l0 -200 ZM500 500 l300 0 l0 -100 l-300 0 l0 100 ZM300 100 l100 0 l0 100 l-100 0 l0 -100 ZM500 200 l0 -200 l300 0 l0 200 l-300 0 ZM0 -100 l0 100 l200 0 l0 -100 l-200 0 Z" /><glyph glyph-name="uni8981" unicode="&#x8981;" d="M400 400 l0 -100 l500 0 l0 -100 l-200 0 l0 -100 l-100 0 l0 100 l-300 0 l0 -100 l-100 0 l0 100 l-200 0 l0 100 l300 0 l0 100 l-200 0 l0 300 l-100 0 l0 100 l900 0 l0 -100 l-100 0 l0 -300 l-400 0 ZM200 600 l0 -100 l100 0 l0 100 l-100 0 ZM400 600 l0 -100 l100 0 l0 100 l-100 0 ZM600 500 l100 0 l0 100 l-100 0 l0 -100 ZM300 100 l300 0 l0 -100 l-300 0 l0 100 ZM100 -100 l0 100 l200 0 l0 -100 l-200 0 ZM800 -100 l-200 0 l0 100 l200 0 l0 -100 Z" /><glyph glyph-name="uni89C9" unicode="&#x89c9;" d="M100 700 l0 100 l100 0 l0 -100 l-100 0 ZM300 800 l100 0 l0 -100 l-100 0 l0 100 ZM700 800 l100 0 l0 -100 l-100 0 l0 100 ZM700 600 l200 0 l0 -200 l-100 0 l0 100 l-100 0 l0 -400 l-100 0 l0 300 l-300 0 l0 -300 l-100 0 l0 400 l-100 0 l0 -100 l-100 0 l0 200 l200 0 l0 100 l100 0 l0 -100 l100 0 l0 100 l100 0 l0 -100 l100 0 l0 100 l100 0 l0 -100 ZM400 300 l100 0 l0 -200 l-100 0 l0 200 ZM400 0 l-100 0 l0 100 l100 0 l0 -100 ZM500 -100 l0 200 l100 0 l0 -100 l200 0 l0 100 l100 0 l0 -200 l-400 0 ZM0 0 l300 0 l0 -100 l-300 0 l0 100 Z" /><glyph glyph-name="uni8BBE" unicode="&#x8bbe;" d="M100 800 l100 0 l0 -100 l-100 0 l0 100 ZM800 600 l100 0 l0 -100 l-200 0 l0 200 l-200 0 l0 -100 l-100 0 l0 200 l400 0 l0 -200 ZM400 500 l-100 0 l0 100 l100 0 l0 -100 ZM200 100 l100 0 l0 -100 l-100 0 l0 -100 l-100 0 l0 500 l-100 0 l0 100 l200 0 l0 -400 ZM800 100 l-100 0 l0 200 l-300 0 l0 100 l400 0 l0 -300 ZM400 100 l0 100 l100 0 l0 -100 l-100 0 ZM500 100 l200 0 l0 -100 l-200 0 l0 100 ZM300 -100 l0 100 l200 0 l0 -100 l-200 0 ZM700 -100 l0 100 l200 0 l0 -100 l-200 0 Z" /><glyph glyph-name="uni8BC9" unicode="&#x8bc9;" d="M100 800 l100 0 l0 -100 l-100 0 l0 100 ZM800 800 l0 -100 l-200 0 l0 100 l200 0 ZM300 700 l0 -100 l-100 0 l0 100 l100 0 ZM900 400 l-100 0 l0 -200 l100 0 l0 -100 l-100 0 l0 -200 l-100 0 l0 300 l-100 0 l0 100 l100 0 l0 100 l-200 0 l0 -400 l-100 0 l0 700 l200 0 l0 -100 l-100 0 l0 -100 l400 0 l0 -100 ZM200 100 l100 0 l0 -100 l-100 0 l0 -100 l-100 0 l0 500 l-100 0 l0 100 l200 0 l0 -400 ZM400 -100 l-100 0 l0 100 l100 0 l0 -100 Z" /><glyph glyph-name="uni8BDD" unicode="&#x8bdd;" d="M100 800 l100 0 l0 -100 l-100 0 l0 100 ZM900 800 l0 -100 l-200 0 l0 100 l200 0 ZM300 700 l0 -100 l-100 0 l0 100 l100 0 ZM700 700 l0 -200 l200 0 l0 -100 l-200 0 l0 -100 l200 0 l0 -400 l-500 0 l0 400 l200 0 l0 100 l-300 0 l0 100 l300 0 l0 100 l-200 0 l0 100 l300 0 ZM200 100 l100 0 l0 -100 l-100 0 l0 -100 l-100 0 l0 500 l-100 0 l0 100 l200 0 l0 -400 ZM800 200 l-300 0 l0 -200 l300 0 l0 200 Z" /><glyph glyph-name="uni8BE6" unicode="&#x8be6;" d="M100 800 l100 0 l0 -100 l-100 0 l0 100 ZM400 800 l100 0 l0 -100 l-100 0 l0 100 ZM700 800 l100 0 l0 -100 l-100 0 l0 100 ZM600 500 l0 -100 l200 0 l0 -100 l-200 0 l0 -100 l300 0 l0 -100 l-300 0 l0 -200 l-100 0 l0 200 l-200 0 l0 100 l200 0 l0 100 l-100 0 l0 100 l100 0 l0 100 l-200 0 l0 100 l300 0 l0 100 l100 0 l0 -100 l200 0 l0 -100 l-300 0 ZM200 100 l100 0 l0 -100 l-100 0 l0 -100 l-100 0 l0 500 l-100 0 l0 100 l200 0 l0 -400 Z" /><glyph glyph-name="uni8BF7" unicode="&#x8bf7;" d="M100 800 l100 0 l0 -100 l-100 0 l0 100 ZM900 500 l0 -100 l-100 0 l0 -500 l-100 0 l0 100 l-200 0 l0 -100 l-100 0 l0 500 l-100 0 l0 100 l200 0 l0 100 l-100 0 l0 100 l100 0 l0 100 l100 0 l0 -100 l200 0 l0 -100 l-200 0 l0 -100 l300 0 ZM300 700 l0 -100 l-100 0 l0 100 l100 0 ZM200 100 l100 0 l0 -100 l-100 0 l0 -100 l-100 0 l0 500 l-100 0 l0 100 l200 0 l0 -400 ZM700 300 l0 100 l-200 0 l0 -100 l200 0 ZM700 100 l0 100 l-200 0 l0 -100 l200 0 Z" /><glyph glyph-name="uni8D35" unicode="&#x8d35;" d="M800 500 l100 0 l0 -100 l-100 0 l0 -300 l-100 0 l0 200 l-500 0 l0 -200 l-100 0 l0 300 l-100 0 l0 100 l100 0 l0 200 l300 0 l0 100 l100 0 l0 -100 l300 0 l0 -200 ZM200 600 l0 -100 l200 0 l0 100 l-200 0 ZM700 600 l-200 0 l0 -100 l200 0 l0 100 ZM500 100 l-100 0 l0 100 l100 0 l0 -100 ZM400 0 l-100 0 l0 100 l100 0 l0 -100 ZM700 0 l-100 0 l0 100 l100 0 l0 -100 ZM100 -100 l0 100 l200 0 l0 -100 l-200 0 ZM800 0 l0 -100 l-100 0 l0 100 l100 0 Z" /><glyph glyph-name="uni8D39" unicode="&#x8d39;" d="M800 500 l100 0 l0 -200 l-100 0 l0 100 l-200 0 l0 -100 l200 0 l0 -200 l-100 0 l0 100 l-200 0 l0 -100 l-100 0 l0 100 l-200 0 l0 -100 l-100 0 l0 200 l100 0 l0 100 l-200 0 l0 100 l300 0 l0 100 l-200 0 l0 100 l200 0 l0 100 l100 0 l0 -100 l100 0 l0 100 l100 0 l0 -100 l200 0 l0 -200 ZM500 600 l-100 0 l0 -100 l100 0 l0 100 ZM600 600 l0 -100 l100 0 l0 100 l-100 0 ZM500 300 l0 100 l-200 0 l0 -100 l200 0 ZM400 0 l-100 0 l0 100 l100 0 l0 -100 ZM700 0 l-100 0 l0 100 l100 0 l0 -100 ZM100 -100 l0 100 l200 0 l0 -100 l-200 0 ZM800 0 l0 -100 l-100 0 l0 100 l100 0 Z" /><glyph glyph-name="uni8DEF" unicode="&#x8def;" d="M700 400 l200 0 l0 -100 l-100 0 l0 -400 l-400 0 l0 100 l-200 0 l0 400 l-200 0 l0 400 l400 0 l0 -200 l100 0 l0 -100 l-100 0 l0 -100 l-100 0 l0 -100 l100 0 l0 100 l100 0 l0 -100 l200 0 l0 100 ZM700 500 l0 100 l-200 0 l0 200 l100 0 l0 -100 l200 0 l0 -200 l-100 0 ZM100 500 l200 0 l0 200 l-200 0 l0 -200 ZM500 400 l0 100 l200 0 l0 -100 l-200 0 ZM100 0 l100 0 l0 -100 l-200 0 l0 400 l100 0 l0 -300 ZM300 200 l0 -100 l100 0 l0 100 l-100 0 ZM700 0 l0 200 l-200 0 l0 -200 l200 0 Z" /><glyph glyph-name="uni8FC7" unicode="&#x8fc7;" d="M100 800 l100 0 l0 -100 l-100 0 l0 100 ZM800 800 l0 -100 l100 0 l0 -100 l-100 0 l0 -500 l-200 0 l0 100 l100 0 l0 400 l-300 0 l0 100 l300 0 l0 100 l100 0 ZM300 700 l0 -100 l-100 0 l0 100 l100 0 ZM200 0 l-100 0 l0 400 l-100 0 l0 100 l200 0 l0 -500 ZM400 500 l100 0 l0 -100 l-100 0 l0 100 ZM600 400 l0 -100 l-100 0 l0 100 l100 0 ZM100 -100 l-100 0 l0 100 l100 0 l0 -100 ZM900 0 l0 -100 l-700 0 l0 100 l700 0 Z" /><glyph glyph-name="uni8FCE" unicode="&#x8fce;" d="M100 800 l100 0 l0 -100 l-100 0 l0 100 ZM600 800 l0 -100 l-200 0 l0 100 l200 0 ZM900 700 l0 -500 l-200 0 l0 -200 l200 0 l0 -100 l-700 0 l0 100 l400 0 l0 300 l-100 0 l0 100 l100 0 l0 300 l300 0 ZM400 300 l100 0 l0 -100 l-200 0 l0 500 l100 0 l0 -400 ZM800 600 l-100 0 l0 -300 l100 0 l0 300 ZM200 0 l-100 0 l0 400 l-100 0 l0 100 l200 0 l0 -500 ZM100 -100 l-100 0 l0 100 l100 0 l0 -100 Z" /><glyph glyph-name="uni8FD0" unicode="&#x8fd0;" d="M100 800 l100 0 l0 -100 l-100 0 l0 100 ZM400 700 l0 100 l400 0 l0 -100 l-400 0 ZM200 0 l-100 0 l0 400 l-100 0 l0 100 l200 0 l0 -500 ZM600 400 l0 -100 l-100 0 l0 100 l-200 0 l0 100 l600 0 l0 -100 l-300 0 ZM400 200 l0 100 l100 0 l0 -100 l200 0 l0 -100 l-400 0 l0 100 l100 0 ZM700 300 l100 0 l0 -100 l-100 0 l0 100 ZM900 200 l0 -100 l-100 0 l0 100 l100 0 ZM100 -100 l-100 0 l0 100 l100 0 l0 -100 ZM900 0 l0 -100 l-700 0 l0 100 l700 0 Z" /><glyph glyph-name="uni8FD9" unicode="&#x8fd9;" d="M100 800 l100 0 l0 -100 l-100 0 l0 100 ZM700 600 l-100 0 l0 -200 l-100 0 l0 200 l-100 0 l0 100 l200 0 l0 100 l100 0 l0 -100 l200 0 l0 -100 l-100 0 l0 -200 l-100 0 l0 200 ZM300 700 l0 -100 l-100 0 l0 100 l100 0 ZM200 0 l-100 0 l0 400 l-100 0 l0 100 l200 0 l0 -500 ZM600 300 l0 100 l100 0 l0 -100 l-100 0 ZM600 200 l-100 0 l0 100 l100 0 l0 -100 ZM800 300 l0 -100 l-100 0 l0 100 l100 0 ZM300 100 l0 100 l200 0 l0 -100 l-200 0 ZM900 200 l0 -100 l-100 0 l0 100 l100 0 ZM100 -100 l-100 0 l0 100 l100 0 l0 -100 ZM900 0 l0 -100 l-700 0 l0 100 l700 0 Z" /><glyph glyph-name="uni9001" unicode="&#x9001;" d="M100 800 l100 0 l0 -100 l-100 0 l0 100 ZM900 500 l0 -100 l-300 0 l0 -100 l-100 0 l0 100 l-200 0 l0 100 l200 0 l0 100 l-200 0 l0 100 l100 0 l0 100 l100 0 l0 -100 l100 0 l0 100 l100 0 l0 -100 l100 0 l0 -100 l-200 0 l0 -100 l300 0 ZM200 0 l-100 0 l0 400 l-100 0 l0 100 l200 0 l0 -500 ZM500 200 l-100 0 l0 100 l100 0 l0 -100 ZM700 300 l0 -100 l-100 0 l0 100 l100 0 ZM400 100 l-100 0 l0 100 l100 0 l0 -100 ZM800 200 l0 -100 l-100 0 l0 100 l100 0 ZM100 -100 l-100 0 l0 100 l100 0 l0 -100 ZM900 0 l0 -100 l-700 0 l0 100 l700 0 Z" /><glyph glyph-name="uni9009" unicode="&#x9009;" d="M100 800 l100 0 l0 -100 l-100 0 l0 100 ZM900 600 l-200 0 l0 -100 l200 0 l0 -100 l-100 0 l0 -200 l100 0 l0 -100 l-200 0 l0 300 l-100 0 l0 -200 l-100 0 l0 200 l-200 0 l0 200 l100 0 l0 -100 l200 0 l0 100 l-200 0 l0 200 l100 0 l0 -100 l100 0 l0 100 l100 0 l0 -100 l200 0 l0 -100 ZM200 0 l-100 0 l0 400 l-100 0 l0 100 l200 0 l0 -500 ZM300 100 l0 100 l200 0 l0 -100 l-200 0 ZM100 -100 l-100 0 l0 100 l100 0 l0 -100 ZM900 0 l0 -100 l-700 0 l0 100 l700 0 Z" /><glyph glyph-name="uni901A" unicode="&#x901a;" d="M100 800 l100 0 l0 -100 l-100 0 l0 100 ZM800 600 l100 0 l0 -500 l-200 0 l0 100 l100 0 l0 100 l-100 0 l0 -100 l-100 0 l0 -100 l-100 0 l0 100 l-100 0 l0 -100 l-100 0 l0 500 l100 0 l0 100 l-100 0 l0 100 l500 0 l0 -200 ZM500 700 l0 -100 l200 0 l0 100 l-200 0 ZM200 0 l-100 0 l0 400 l-100 0 l0 100 l200 0 l0 -500 ZM500 500 l-100 0 l0 -100 l100 0 l0 100 ZM800 400 l0 100 l-200 0 l0 -100 l200 0 ZM100 -100 l-100 0 l0 100 l100 0 l0 -100 ZM900 0 l0 -100 l-700 0 l0 100 l700 0 Z" /><glyph glyph-name="uni9053" unicode="&#x9053;" d="M100 700 l0 100 l100 0 l0 -100 l-100 0 ZM600 600 l0 -100 l200 0 l0 -500 l100 0 l0 -100 l-700 0 l0 100 l100 0 l0 500 l200 0 l0 100 l-300 0 l0 100 l200 0 l0 100 l100 0 l0 -100 l100 0 l0 100 l100 0 l0 -100 l200 0 l0 -100 l-300 0 ZM200 0 l-100 0 l0 400 l-100 0 l0 100 l200 0 l0 -500 ZM700 300 l0 100 l-300 0 l0 -100 l300 0 ZM700 100 l0 100 l-300 0 l0 -100 l300 0 ZM100 -100 l-100 0 l0 100 l100 0 l0 -100 Z" /><glyph glyph-name="uni90AE" unicode="&#x90ae;" d="M300 600 l200 0 l0 -700 l-500 0 l0 700 l200 0 l0 200 l100 0 l0 -200 ZM900 800 l0 -300 l-100 0 l0 200 l-100 0 l0 -200 l100 0 l0 -100 l-100 0 l0 -200 l100 0 l0 200 l100 0 l0 -300 l-200 0 l0 -200 l-100 0 l0 900 l300 0 ZM100 500 l0 -200 l100 0 l0 200 l-100 0 ZM400 300 l0 200 l-100 0 l0 -200 l100 0 ZM100 0 l100 0 l0 200 l-100 0 l0 -200 ZM400 0 l0 200 l-100 0 l0 -200 l100 0 Z" /><glyph glyph-name="uni90E8" unicode="&#x90e8;" d="M300 800 l0 -100 l200 0 l0 -100 l-100 0 l0 -100 l100 0 l0 -100 l-500 0 l0 100 l100 0 l0 100 l-100 0 l0 100 l200 0 l0 100 l100 0 ZM900 800 l0 -300 l-100 0 l0 200 l-100 0 l0 -200 l100 0 l0 -100 l-100 0 l0 -200 l100 0 l0 200 l100 0 l0 -300 l-200 0 l0 -200 l-100 0 l0 900 l300 0 ZM200 500 l100 0 l0 100 l-100 0 l0 -100 ZM500 300 l0 -400 l-500 0 l0 400 l500 0 ZM400 0 l0 200 l-300 0 l0 -200 l300 0 Z" /><glyph glyph-name="uni914D" unicode="&#x914d;" d="M500 800 l0 -100 l-100 0 l0 -100 l100 0 l0 -700 l-500 0 l0 700 l100 0 l0 100 l-100 0 l0 100 l500 0 ZM900 800 l0 -400 l-200 0 l0 -400 l-100 0 l0 500 l200 0 l0 200 l-200 0 l0 100 l300 0 ZM200 600 l100 0 l0 100 l-100 0 l0 -100 ZM400 200 l0 100 l-100 0 l0 200 l-100 0 l0 -200 l-100 0 l0 -100 l300 0 ZM900 -100 l-200 0 l0 100 l100 0 l0 200 l100 0 l0 -300 ZM400 0 l0 100 l-300 0 l0 -100 l300 0 Z" /><glyph glyph-name="uni91D1" unicode="&#x91d1;" d="M600 700 l-300 0 l0 100 l300 0 l0 -100 ZM200 700 l100 0 l0 -100 l-100 0 l0 100 ZM700 700 l0 -100 l-100 0 l0 100 l100 0 ZM100 500 l0 100 l100 0 l0 -100 l-100 0 ZM700 500 l0 100 l100 0 l0 -100 l-100 0 ZM100 400 l-100 0 l0 100 l100 0 l0 -100 ZM700 500 l0 -100 l-200 0 l0 -100 l200 0 l0 -100 l-200 0 l0 -200 l100 0 l0 100 l100 0 l0 -100 l200 0 l0 -100 l-900 0 l0 100 l200 0 l0 100 l100 0 l0 -100 l100 0 l0 200 l-200 0 l0 100 l200 0 l0 100 l-200 0 l0 100 l500 0 ZM900 500 l0 -100 l-100 0 l0 100 l100 0 ZM100 100 l0 100 l100 0 l0 -100 l-100 0 ZM800 200 l0 -100 l-100 0 l0 100 l100 0 Z" /><glyph glyph-name="uni95EE" unicode="&#x95ee;" d="M0 700 l0 100 l100 0 l0 -100 l-100 0 ZM900 800 l0 -900 l-200 0 l0 100 l100 0 l0 700 l-500 0 l0 100 l600 0 ZM200 700 l0 -100 l-100 0 l0 100 l100 0 ZM0 500 l100 0 l0 -600 l-100 0 l0 600 ZM700 100 l-500 0 l0 400 l500 0 l0 -400 ZM600 200 l0 200 l-300 0 l0 -200 l300 0 Z" /><glyph glyph-name="uni963F" unicode="&#x963f;" d="M100 700 l0 -200 l100 0 l0 -100 l-100 0 l0 -200 l100 0 l0 200 l100 0 l0 -300 l-200 0 l0 -200 l-100 0 l0 900 l200 0 l0 -100 l-100 0 ZM900 800 l0 -100 l-100 0 l0 -800 l-200 0 l0 100 l100 0 l0 200 l-300 0 l0 400 l300 0 l0 100 l-400 0 l0 100 l600 0 ZM200 500 l0 200 l100 0 l0 -200 l-100 0 ZM500 300 l100 0 l0 200 l-100 0 l0 -200 Z" /><glyph glyph-name="uni9644" unicode="&#x9644;" d="M200 200 l0 200 l100 0 l0 -300 l-200 0 l0 -200 l-100 0 l0 900 l300 0 l0 -300 l-100 0 l0 200 l-100 0 l0 -200 l100 0 l0 -100 l-100 0 l0 -200 l100 0 ZM800 600 l100 0 l0 -100 l-100 0 l0 -600 l-200 0 l0 100 l100 0 l0 200 l-100 0 l0 100 l100 0 l0 200 l-200 0 l0 -100 l100 0 l0 -100 l-100 0 l0 -400 l-100 0 l0 500 l-100 0 l0 100 l100 0 l0 300 l100 0 l0 -200 l200 0 l0 200 l100 0 l0 -200 Z" /><glyph glyph-name="uni968F" unicode="&#x968f;" d="M200 200 l0 200 l100 0 l0 -300 l-200 0 l0 -200 l-100 0 l0 900 l300 0 l0 -300 l-100 0 l0 200 l-100 0 l0 -200 l100 0 l0 -100 l-100 0 l0 -200 l100 0 ZM900 600 l-200 0 l0 -100 l200 0 l0 -400 l-100 0 l0 100 l-100 0 l0 -100 l-100 0 l0 200 l-100 0 l0 -300 l-100 0 l0 400 l-100 0 l0 100 l200 0 l0 -100 l100 0 l0 200 l-100 0 l0 100 l200 0 l0 100 l100 0 l0 -100 l100 0 l0 -100 ZM400 700 l0 100 l100 0 l0 -100 l-100 0 ZM800 300 l0 100 l-100 0 l0 -100 l100 0 ZM400 -100 l-100 0 l0 100 l100 0 l0 -100 ZM500 -100 l0 100 l400 0 l0 -100 l-400 0 Z" /><glyph glyph-name="uni96A7" unicode="&#x96a7;" d="M400 300 l0 -300 l-100 0 l0 100 l-200 0 l0 -200 l-100 0 l0 900 l300 0 l0 -200 l-100 0 l0 100 l-100 0 l0 -100 l100 0 l0 -100 l-100 0 l0 -300 l100 0 l0 300 l100 0 l0 -100 l200 0 l0 -100 l-100 0 ZM900 600 l-200 0 l0 -100 l-100 0 l0 100 l-200 0 l0 100 l100 0 l0 100 l100 0 l0 -100 l100 0 l0 100 l100 0 l0 -100 l100 0 l0 -100 ZM400 600 l0 -100 l-100 0 l0 100 l100 0 ZM600 400 l100 0 l0 100 l100 0 l0 -100 l100 0 l0 -100 l-100 0 l0 -100 l100 0 l0 -100 l-100 0 l0 -100 l100 0 l0 -100 l-500 0 l0 100 l200 0 l0 100 l100 0 l0 100 l-100 0 l0 200 ZM600 400 l-100 0 l0 100 l100 0 l0 -100 ZM600 100 l-100 0 l0 100 l100 0 l0 -100 ZM300 -100 l-100 0 l0 100 l100 0 l0 -100 Z" /><glyph glyph-name="uni9700" unicode="&#x9700;" d="M800 800 l0 -100 l100 0 l0 -300 l-100 0 l0 -100 l-300 0 l0 -100 l400 0 l0 -300 l-200 0 l0 100 l100 0 l0 100 l-200 0 l0 -200 l-100 0 l0 200 l-100 0 l0 -200 l-100 0 l0 200 l-200 0 l0 -200 l-100 0 l0 300 l400 0 l0 100 l-300 0 l0 100 l200 0 l0 100 l100 0 l0 100 l-100 0 l0 -100 l-100 0 l0 100 l-100 0 l0 -200 l-100 0 l0 300 l100 0 l0 100 l700 0 ZM700 500 l100 0 l0 100 l-100 0 l0 -100 l-100 0 l0 100 l-100 0 l0 -200 l200 0 l0 100 Z" /><glyph glyph-name="uni9762" unicode="&#x9762;" d="M500 700 l0 -100 l400 0 l0 -700 l-900 0 l0 700 l400 0 l0 100 l-400 0 l0 100 l900 0 l0 -100 l-400 0 ZM100 0 l100 0 l0 500 l-100 0 l0 -500 ZM600 400 l0 100 l-300 0 l0 -100 l300 0 ZM800 500 l-100 0 l0 -500 l100 0 l0 500 ZM600 200 l0 100 l-300 0 l0 -100 l300 0 ZM600 0 l0 100 l-300 0 l0 -100 l300 0 Z" /><glyph glyph-name="uni9875" unicode="&#x9875;" d="M900 800 l0 -100 l-400 0 l0 -100 l300 0 l0 -400 l-100 0 l0 300 l-500 0 l0 -300 l-100 0 l0 400 l300 0 l0 100 l-400 0 l0 100 l900 0 ZM400 400 l100 0 l0 -300 l-100 0 l0 300 ZM400 0 l-100 0 l0 100 l100 0 l0 -100 ZM600 0 l0 100 l100 0 l0 -100 l-100 0 ZM100 -100 l0 100 l200 0 l0 -100 l-200 0 ZM800 -100 l-100 0 l0 100 l100 0 l0 -100 Z" /><glyph glyph-name="uni9996" unicode="&#x9996;" d="M700 700 l200 0 l0 -100 l-400 0 l0 -100 l300 0 l0 -600 l-700 0 l0 600 l300 0 l0 100 l-400 0 l0 100 l200 0 l0 100 l100 0 l0 -100 l300 0 l0 100 l100 0 l0 -100 ZM700 200 l0 100 l-500 0 l0 -100 l500 0 ZM700 0 l0 100 l-500 0 l0 -100 l500 0 Z" /><glyph glyph-name="uni9999" unicode="&#x9999;" d="M900 500 l-200 0 l0 -100 l-100 0 l0 100 l-100 0 l0 -100 l100 0 l0 -100 l-300 0 l0 100 l100 0 l0 100 l-100 0 l0 -100 l-100 0 l0 100 l-200 0 l0 100 l400 0 l0 100 l-200 0 l0 100 l500 0 l0 -100 l-200 0 l0 -100 l400 0 l0 -100 ZM100 300 l0 100 l100 0 l0 -100 l-100 0 ZM800 400 l0 -100 l-100 0 l0 100 l100 0 ZM100 200 l-100 0 l0 100 l100 0 l0 -100 ZM600 200 l0 100 l100 0 l0 -400 l-500 0 l0 400 l100 0 l0 -100 l300 0 ZM900 300 l0 -100 l-100 0 l0 100 l100 0 ZM600 0 l0 100 l-300 0 l0 -100 l300 0 Z" /><glyph glyph-name="uni9A8C" unicode="&#x9a8c;" d="M400 600 l100 0 l0 -100 l-100 0 l0 -300 l100 0 l0 -100 l-100 0 l0 -100 l-100 0 l0 300 l-200 0 l0 300 l100 0 l0 -200 l100 0 l0 300 l-200 0 l0 100 l300 0 l0 -200 ZM600 800 l100 0 l0 -100 l-100 0 l0 100 ZM500 700 l100 0 l0 -100 l-100 0 l0 100 ZM800 700 l0 -100 l-100 0 l0 100 l100 0 ZM900 600 l0 -100 l-100 0 l0 100 l100 0 ZM800 500 l0 -100 l-300 0 l0 100 l300 0 ZM700 200 l-100 0 l0 100 l100 0 l0 -100 ZM900 300 l0 -200 l-100 0 l0 200 l100 0 ZM200 200 l0 -100 l-200 0 l0 100 l200 0 ZM400 -100 l0 100 l100 0 l0 100 l100 0 l0 -100 l100 0 l0 100 l100 0 l0 -100 l100 0 l0 -100 l-500 0 ZM300 -100 l-100 0 l0 100 l100 0 l0 -100 Z" /><glyph glyph-name="zero" unicode="0" d="M300 700 l0 -100 l-200 0 l0 100 l200 0 ZM100 100 l-100 0 l0 500 l100 0 l0 -500 ZM300 600 l100 0 l0 -500 l-100 0 l0 500 ZM100 0 l0 100 l200 0 l0 -100 l-200 0 Z" /><glyph glyph-name="one" unicode="1" d="M200 600 l0 100 l100 0 l0 -700 l-100 0 l0 500 l-100 0 l0 100 l100 0 Z" /><glyph glyph-name="two" unicode="2" d="M100 700 l200 0 l0 -100 l-200 0 l0 100 ZM100 500 l-100 0 l0 100 l100 0 l0 -100 ZM300 600 l100 0 l0 -200 l-100 0 l0 200 ZM300 300 l-100 0 l0 100 l100 0 l0 -100 ZM200 200 l-100 0 l0 100 l100 0 l0 -100 ZM0 0 l0 200 l100 0 l0 -100 l300 0 l0 -100 l-400 0 Z" /><glyph glyph-name="three" unicode="3" d="M100 700 l200 0 l0 -100 l-200 0 l0 100 ZM100 500 l-100 0 l0 100 l100 0 l0 -100 ZM300 600 l100 0 l0 -200 l-100 0 l0 200 ZM100 300 l0 100 l200 0 l0 -100 l-200 0 ZM400 100 l-100 0 l0 200 l100 0 l0 -200 ZM0 100 l0 100 l100 0 l0 -100 l-100 0 ZM100 0 l0 100 l200 0 l0 -100 l-200 0 Z" /><glyph glyph-name="four" unicode="4" d="M200 700 l100 0 l0 -100 l-100 0 l0 100 ZM200 600 l0 -200 l-100 0 l0 200 l100 0 ZM300 500 l100 0 l0 -500 l-100 0 l0 100 l-300 0 l0 300 l100 0 l0 -200 l200 0 l0 300 Z" /><glyph glyph-name="five" unicode="5" d="M100 600 l0 -100 l200 0 l0 -100 l-300 0 l0 300 l400 0 l0 -100 l-300 0 ZM300 100 l0 300 l100 0 l0 -300 l-100 0 ZM0 100 l0 100 l100 0 l0 -100 l-100 0 ZM100 0 l0 100 l200 0 l0 -100 l-200 0 Z" /><glyph glyph-name="six" unicode="6" d="M300 700 l0 -100 l-200 0 l0 100 l200 0 ZM100 400 l0 -300 l-100 0 l0 500 l100 0 l0 -100 l200 0 l0 -100 l-200 0 ZM300 400 l100 0 l0 -300 l-100 0 l0 300 ZM100 0 l0 100 l200 0 l0 -100 l-200 0 Z" /><glyph glyph-name="eight" unicode="8" d="M300 700 l0 -100 l-200 0 l0 100 l200 0 ZM0 600 l100 0 l0 -200 l-100 0 l0 200 ZM300 600 l100 0 l0 -200 l-100 0 l0 200 ZM100 300 l0 100 l200 0 l0 -100 l-200 0 ZM0 300 l100 0 l0 -200 l-100 0 l0 200 ZM400 100 l-100 0 l0 200 l100 0 l0 -200 ZM100 0 l0 100 l200 0 l0 -100 l-200 0 Z" /><glyph glyph-name="nine" unicode="9" d="M300 700 l0 -100 l-200 0 l0 100 l200 0 ZM0 600 l100 0 l0 -200 l-100 0 l0 200 ZM300 600 l100 0 l0 -500 l-100 0 l0 200 l-200 0 l0 100 l200 0 l0 200 ZM0 100 l0 100 l100 0 l0 -100 l-100 0 ZM100 0 l0 100 l200 0 l0 -100 l-200 0 Z" /><glyph glyph-name="period" unicode="." d="M100 100 l0 -100 l-100 0 l0 100 l100 0 Z" /><glyph glyph-name="comma" unicode="," d="M100 100 l100 0 l0 -200 l-100 0 l0 200 ZM100 -200 l-100 0 l0 100 l100 0 l0 -100 Z" /><glyph glyph-name="colon" unicode=":" d="M100 500 l0 -100 l-100 0 l0 100 l100 0 ZM100 100 l0 -100 l-100 0 l0 100 l100 0 Z" /><glyph glyph-name="semicolon" unicode=";" d="M100 400 l0 100 l100 0 l0 -100 l-100 0 ZM100 -100 l0 200 l100 0 l0 -200 l-100 0 ZM100 -200 l-100 0 l0 100 l100 0 l0 -100 Z" /><glyph glyph-name="question" unicode="?" d="M100 700 l200 0 l0 -100 l-200 0 l0 100 ZM100 500 l-100 0 l0 100 l100 0 l0 -100 ZM300 600 l100 0 l0 -200 l-100 0 l0 200 ZM300 300 l-100 0 l0 100 l100 0 l0 -100 ZM200 200 l-100 0 l0 100 l100 0 l0 -100 ZM200 0 l-100 0 l0 100 l100 0 l0 -100 Z" /><glyph glyph-name="slash" unicode="/" d="M300 800 l100 0 l0 -200 l-100 0 l0 200 ZM200 600 l100 0 l0 -300 l-100 0 l0 300 ZM100 300 l100 0 l0 -300 l-100 0 l0 300 ZM0 -200 l0 200 l100 0 l0 -200 l-100 0 Z" /><glyph glyph-name="uniFF1A" unicode="&#xff1a;" d="M300 500 l0 -100 l-100 0 l0 100 l100 0 ZM300 100 l0 -100 l-100 0 l0 100 l100 0 Z" /><glyph glyph-name="uniFF0C" unicode="&#xff0c;" d="M200 200 l100 0 l0 -200 l-100 0 l0 200 ZM200 -100 l-100 0 l0 100 l100 0 l0 -100 Z" /><glyph glyph-name="uniFF1F" unicode="&#xff1f;" d="M400 700 l0 -100 l-300 0 l0 100 l300 0 ZM100 500 l-100 0 l0 100 l100 0 l0 -100 ZM400 600 l100 0 l0 -200 l-100 0 l0 200 ZM400 300 l-100 0 l0 100 l100 0 l0 -100 ZM300 200 l-100 0 l0 100 l100 0 l0 -100 ZM300 0 l-100 0 l0 100 l100 0 l0 -100 Z" /><glyph glyph-name="parenleft" unicode="(" d="M100 800 l100 0 l0 -100 l-100 0 l0 100 ZM100 0 l-100 0 l0 700 l100 0 l0 -700 ZM200 0 l0 -100 l-100 0 l0 100 l100 0 Z" /><glyph glyph-name="parenright" unicode=")" d="M0 700 l0 100 l100 0 l0 -100 l-100 0 ZM100 700 l100 0 l0 -700 l-100 0 l0 700 ZM100 -100 l-100 0 l0 100 l100 0 l0 -100 Z" /><glyph glyph-name="braceleft" unicode="{" d="M200 400 l-100 0 l0 400 l200 0 l0 -100 l-100 0 l0 -300 ZM0 300 l0 100 l100 0 l0 -100 l-100 0 ZM100 300 l100 0 l0 -300 l100 0 l0 -100 l-200 0 l0 400 Z" /><glyph glyph-name="braceright" unicode="}" d="M200 400 l-100 0 l0 300 l-100 0 l0 100 l200 0 l0 -400 ZM200 300 l0 100 l100 0 l0 -100 l-100 0 ZM100 300 l100 0 l0 -400 l-200 0 l0 100 l100 0 l0 300 Z" /><glyph glyph-name="bracketleft" unicode="[" d="M100 0 l100 0 l0 -100 l-200 0 l0 900 l200 0 l0 -100 l-100 0 l0 -700 Z" /><glyph glyph-name="bracketright" unicode="]" d="M0 800 l200 0 l0 -900 l-200 0 l0 100 l100 0 l0 700 l-100 0 l0 100 Z" /><glyph glyph-name="uniFF08" unicode="&#xff08;" d="M700 800 l100 0 l0 -100 l-100 0 l0 100 ZM600 700 l100 0 l0 -100 l-100 0 l0 100 ZM600 100 l-100 0 l0 500 l100 0 l0 -500 ZM700 100 l0 -100 l-100 0 l0 100 l100 0 ZM800 0 l0 -100 l-100 0 l0 100 l100 0 Z" /><glyph glyph-name="uniFF09" unicode="&#xff09;" d="M100 700 l0 100 l100 0 l0 -100 l-100 0 ZM200 600 l0 100 l100 0 l0 -100 l-100 0 ZM300 600 l100 0 l0 -500 l-100 0 l0 500 ZM300 0 l-100 0 l0 100 l100 0 l0 -100 ZM200 -100 l-100 0 l0 100 l100 0 l0 -100 Z" /><glyph glyph-name="hyphen" unicode="-" d="M300 400 l0 -100 l-300 0 l0 100 l300 0 Z" /><glyph glyph-name="quotesingle" unicode="&#39;" d="M100 800 l100 0 l0 -200 l-100 0 l0 200 Z" /><glyph glyph-name="uni3001" unicode="&#x3001;" d="M100 100 l0 100 l100 0 l0 -100 l-100 0 ZM200 100 l100 0 l0 -200 l-100 0 l0 200 Z" /><glyph glyph-name="uni3002" unicode="&#x3002;" d="M300 200 l0 -100 l-100 0 l0 100 l100 0 ZM200 100 l0 -100 l-100 0 l0 100 l100 0 ZM400 100 l0 -100 l-100 0 l0 100 l100 0 ZM300 0 l0 -100 l-100 0 l0 100 l100 0 Z" /><glyph glyph-name="plus" unicode="+" d="M300 400 l200 0 l0 -100 l-200 0 l0 -200 l-100 0 l0 200 l-200 0 l0 100 l200 0 l0 200 l100 0 l0 -200 Z" /><glyph glyph-name="equal" unicode="=" d="M500 500 l0 -100 l-500 0 l0 100 l500 0 ZM500 300 l0 -100 l-500 0 l0 100 l500 0 Z" /><glyph glyph-name="greater" unicode="&gt;" d="M0 600 l200 0 l0 -100 l-200 0 l0 100 ZM200 500 l200 0 l0 -100 l-200 0 l0 100 ZM400 300 l0 100 l100 0 l0 -100 l-100 0 ZM200 200 l0 100 l200 0 l0 -100 l-200 0 ZM0 100 l0 100 l200 0 l0 -100 l-200 0 Z" /><glyph glyph-name="at" unicode="@" d="M600 700 l0 -100 l-400 0 l0 100 l400 0 ZM200 500 l-100 0 l0 100 l100 0 l0 -100 ZM600 600 l100 0 l0 -300 l-100 0 l0 300 ZM0 500 l100 0 l0 -400 l-100 0 l0 400 ZM500 500 l0 -200 l-100 0 l0 100 l-100 0 l0 100 l200 0 ZM200 400 l100 0 l0 -100 l100 0 l0 -100 l-200 0 l0 200 ZM600 200 l-100 0 l0 100 l100 0 l0 -100 ZM100 0 l0 100 l600 0 l0 -100 l-600 0 Z" /><glyph glyph-name="ampersand" unicode="&amp;" d="M300 700 l0 -100 l-200 0 l0 100 l200 0 ZM0 600 l100 0 l0 -200 l-100 0 l0 200 ZM400 600 l0 -100 l-100 0 l0 100 l100 0 ZM300 400 l-100 0 l0 100 l100 0 l0 -100 ZM100 400 l100 0 l0 -100 l-100 0 l0 100 ZM400 400 l100 0 l0 -200 l-100 0 l0 200 ZM100 100 l200 0 l0 -100 l-300 0 l0 300 l100 0 l0 -200 ZM300 300 l0 -100 l-100 0 l0 100 l100 0 ZM400 100 l-100 0 l0 100 l100 0 l0 -100 ZM500 100 l0 -100 l-100 0 l0 100 l100 0 Z" /><glyph glyph-name="copyright" unicode="©" d="M200 700 l0 100 l500 0 l0 -100 l-500 0 ZM100 700 l100 0 l0 -100 l-100 0 l0 100 ZM800 700 l0 -100 l-100 0 l0 100 l100 0 ZM100 100 l-100 0 l0 500 l100 0 l0 -500 ZM300 600 l300 0 l0 -200 l-100 0 l0 100 l-200 0 l0 100 ZM800 600 l100 0 l0 -500 l-100 0 l0 500 ZM200 500 l100 0 l0 -300 l-100 0 l0 300 ZM300 100 l0 100 l300 0 l0 -100 l-300 0 ZM100 0 l0 100 l100 0 l0 -100 l-100 0 ZM800 0 l-100 0 l0 100 l100 0 l0 -100 ZM700 0 l0 -100 l-500 0 l0 100 l500 0 Z" /><glyph glyph-name="bar" unicode="|" d="M0 800 l100 0 l0 -1000 l-100 0 l0 1000 Z" /></font>
</defs>
</svg>
